# Blender v2.77 (sub 0) OBJ File: ''
# www.blender.org
mtllib crystal.mtl
o Circle
v 0.000000 0.749936 0.000000
v 0.000000 0.349936 -0.250000
v -0.216506 0.349936 -0.125000
v -0.216506 0.349936 0.125000
v 0.000000 0.349936 0.250000
v 0.216506 0.349936 0.125000
v 0.216506 0.349936 -0.125000
v 0.216506 -0.350064 -0.125000
v 0.000000 -0.350064 -0.250000
v 0.216506 -0.350064 0.125000
v 0.000000 -0.350064 0.250000
v -0.216506 -0.350064 0.125000
v -0.216506 -0.350064 -0.125000
v 0.000000 -0.750064 -0.000000
vt 0.5938 0.8750
vt 0.3984 0.3281
vt 0.7969 0.3281
vt 0.4062 0.3281
vt 0.7969 0.3281
vt 0.3984 0.3281
vt 0.7969 0.3281
vt 0.3984 0.3281
vt 0.7969 0.3281
vt 0.3984 0.3281
vt 0.7969 0.3281
vt 0.3984 0.3281
vt 0.7891 0.3281
vt 0.0000 1.0000
vt 0.0000 0.3281
vt 0.3984 0.3281
vt 0.0001 0.9999
vt 0.0000 0.3281
vt 0.3984 0.3281
vt 0.0001 0.9999
vt 0.0000 0.3281
vt 0.3984 0.3281
vt 0.0001 0.9999
vt 0.0000 0.3281
vt 0.3984 0.3281
vt 0.0001 0.9999
vt 0.0000 0.3281
vt 0.3984 0.3281
vt 0.0001 0.9999
vt 0.0000 0.3281
vt 0.3984 0.3281
vt 0.9989 0.9992
vt 0.6068 0.9997
vt 0.8009 0.4552
vt 0.9991 0.9993
vt 0.6069 0.9997
vt 0.9989 0.9993
vt 0.6069 0.9997
vt 0.9989 0.9992
vt 0.6069 0.9997
vt 0.9989 0.9993
vt 0.6069 0.9996
vt 0.9989 0.9993
vt 0.6069 0.9997
vt 0.3984 1.0000
vt 0.3984 1.0000
vt 0.3984 1.0000
vt 0.3984 1.0000
vt 0.3984 1.0000
vt 0.3984 1.0000
vn -0.4397 0.4760 -0.7616
vn -0.8794 0.4760 0.0000
vn -0.4397 0.4760 0.7616
vn 0.4397 0.4760 0.7616
vn 0.8794 0.4760 0.0000
vn 0.4397 0.4760 -0.7616
vn 0.5000 0.0000 -0.8660
vn 1.0000 0.0000 0.0000
vn 0.5000 -0.0000 0.8660
vn -0.5000 -0.0000 0.8660
vn -1.0000 0.0000 0.0000
vn -0.5000 0.0000 -0.8660
vn 0.4397 -0.4760 -0.7616
vn 0.8794 -0.4760 -0.0000
vn 0.4397 -0.4760 0.7616
vn -0.4397 -0.4760 0.7616
vn -0.8794 -0.4760 -0.0000
vn -0.4397 -0.4760 -0.7616
usemtl None
s off
f 1/1/1 2/2/1 3/3/1
f 1/1/2 3/4/2 4/5/2
f 1/1/3 4/6/3 5/7/3
f 1/1/4 5/8/4 6/9/4
f 1/1/5 6/10/5 7/11/5
f 1/1/6 7/12/6 2/13/6
f 7/14/7 8/15/7 9/16/7
f 6/17/8 10/18/8 8/19/8
f 5/20/9 11/21/9 10/22/9
f 4/23/10 12/24/10 11/25/10
f 3/26/11 13/27/11 12/28/11
f 2/29/12 9/30/12 13/31/12
f 9/32/13 8/33/13 14/34/13
f 8/35/14 10/36/14 14/34/14
f 10/37/15 11/38/15 14/34/15
f 11/39/16 12/40/16 14/34/16
f 12/41/17 13/42/17 14/34/17
f 13/43/18 9/44/18 14/34/18
f 5/45/10 4/23/10 11/25/10
f 6/46/9 5/20/9 10/22/9
f 7/47/8 6/17/8 8/19/8
f 2/48/7 7/14/7 9/16/7
f 3/49/12 2/29/12 13/31/12
f 4/50/11 3/26/11 12/28/11
