# Blender v2.79 (sub 0) OBJ File: 'axe.blend'
# www.blender.org
mtllib axe.mtl
g head
v -0.000000 0.331470 -0.684352
v -0.000838 0.329819 -0.684209
v -0.019679 0.336854 -0.664760
v -0.030371 -0.185477 -0.498807
v -0.011659 -0.184291 -0.493793
v -0.032681 -0.179349 -0.497868
v -0.030000 -0.069757 -0.470000
v -0.050000 -0.070000 -0.475104
v 0.050000 0.039374 -0.475000
v 0.030000 -0.069757 -0.470000
v 0.030000 0.070000 -0.470000
v 0.000000 -0.260733 -0.514473
v 0.000000 -0.213180 -0.499807
v 0.030371 -0.185477 -0.498807
v 0.011659 -0.184291 -0.493793
v 0.050000 -0.070000 -0.475104
v 0.032681 -0.179349 -0.497868
v -0.030000 0.070000 -0.470000
v -0.050000 0.039374 -0.475000
v -0.050000 0.070000 -0.470000
v -0.019701 0.105302 -0.464236
v -0.040638 0.181491 -0.451798
v 0.019701 0.105302 -0.464236
v 0.050000 0.070000 -0.470000
v 0.040638 0.181491 -0.451798
v 0.019701 0.336810 -0.326506
v -0.019701 0.336810 -0.326506
v 0.019701 0.336810 -0.664745
v 0.031588 0.289265 -0.373464
v 0.050000 -0.070000 -0.530356
v 0.050000 -0.003139 -0.572042
v 0.050000 -0.070000 -0.629475
v 0.050000 -0.070000 -0.613729
v 0.029771 -0.070000 -0.572042
v 0.000000 -0.257965 -0.516199
v -0.029771 -0.070000 -0.572042
v -0.049999 0.070008 -0.641612
v -0.031588 0.289265 -0.660619
v -0.025000 0.068960 -0.661596
v -0.004236 0.316226 -0.683031
v -0.025000 -0.131623 -0.644207
v -0.050000 -0.070000 -0.629475
v -0.040281 -0.131362 -0.631959
v -0.030736 -0.169851 -0.636287
v -0.031588 0.289265 -0.373464
v -0.050000 -0.003139 -0.572042
v -0.050000 -0.070000 -0.530356
v -0.050000 -0.070000 -0.613729
v 0.000000 -0.257965 -0.627886
v 0.000000 -0.259039 -0.628556
v 0.025000 -0.131623 -0.644207
v 0.025000 0.068960 -0.661596
v 0.049999 0.070008 -0.641612
v 0.040281 -0.131362 -0.631959
v 0.030736 -0.169851 -0.636287
v 0.004236 0.316226 -0.683031
v 0.031588 0.289265 -0.660619
v -0.000000 -0.204166 -0.637919
v 0.000813 0.329808 -0.684162
vt 0.487598 0.682348
vt 0.139424 0.693209
vt 0.183127 0.646921
vt 0.768788 0.662382
vt 0.686656 0.644092
vt 0.768555 0.689927
vt 0.850670 0.459093
vt 0.703961 0.496241
vt 0.710371 0.422073
vt 0.397346 0.079078
vt 0.676175 0.037128
vt 0.676061 0.121777
vt 0.489945 0.636886
vt 0.944349 0.686853
vt 0.946724 0.689429
vt 0.818013 0.674745
vt 0.690383 0.622911
vt 0.914538 0.446375
vt 0.859875 0.460918
vt 0.971621 0.487291
vt 0.859235 0.460863
vt 0.913879 0.446345
vt 0.970923 0.487264
vt 0.579410 0.115478
vt 0.293181 0.115477
vt 0.293181 0.044394
vt 0.112729 0.655301
vt 0.102994 0.162314
vt 0.176825 0.230120
vt 0.851306 0.459151
vt 0.870703 0.436715
vt 0.717790 0.394591
vt 0.490492 0.637146
vt 0.606906 0.549028
vt 0.556268 0.398424
vt 0.518264 0.361035
vt 0.954889 0.079827
vt 0.768114 0.662209
vt 0.686023 0.643898
vt 0.689756 0.622728
vt 0.598039 0.119940
vt 0.399349 0.034639
vt 0.598039 0.034639
vt 0.710935 0.422165
vt 0.704549 0.496366
vt 0.967142 0.489855
vt 0.706568 0.560507
vt 0.512215 0.388582
vt 0.707180 0.560659
vt 0.139850 0.693611
vt 0.183556 0.647290
vt 0.113064 0.655725
vt 0.870201 0.707340
vt 0.818712 0.674905
vt 0.471281 0.335184
vt 0.177097 0.230325
vt 0.471713 0.335324
vt 0.103211 0.162518
vt 0.947483 0.689550
vt 0.945106 0.686974
vt 0.233042 0.093865
vt 0.191090 0.077289
vt 0.233042 0.060714
vt 0.488161 0.682628
vt 0.606340 0.548846
vt 0.348357 0.337975
vt 0.869469 0.707184
vt 0.767872 0.689743
vt 0.870066 0.436674
vt 0.555777 0.398287
vt 0.717232 0.394513
vt 0.189663 0.079935
vt 0.579410 0.044395
vt 0.932256 0.073914
vt 0.951653 0.078745
vt 0.932257 0.085960
vt 0.118970 0.695903
vt 0.399349 0.119940
vt 0.517802 0.360900
vt 0.511746 0.388433
vt 0.348740 0.338162
vt 0.648893 0.049281
vt 0.648893 0.105298
vt 0.119378 0.696332
vt 0.967838 0.489884
vt 0.951632 0.081094
vt 0.954010 0.079937
vn 0.6247 -0.0152 -0.7807
vn -0.6247 -0.0674 -0.7780
vn 0.9877 -0.1564 0.0000
vn 0.0000 -0.2848 -0.9586
vn 0.8681 -0.2626 0.4212
vn -0.9877 -0.1564 0.0000
vn -0.2309 -0.2868 0.9297
vn 0.2309 -0.2868 0.9297
vn 0.0000 -0.0864 -0.9963
vn 0.9701 0.2425 0.0000
vn -0.2378 -0.2339 0.9427
vn -1.0000 0.0000 -0.0000
vn -0.2425 0.0000 0.9701
vn 0.0000 -0.2848 0.9586
vn 0.0000 0.0000 1.0000
vn 0.8681 -0.2626 -0.4213
vn 0.0000 -0.1611 0.9869
vn -0.8681 -0.2626 -0.4213
vn -0.6933 0.1116 -0.7119
vn 0.6247 -0.0674 -0.7780
vn -0.2335 -0.1636 -0.9585
vn 0.8036 -0.3043 0.5115
vn -0.8036 -0.3043 0.5115
vn -0.8681 -0.2626 0.4213
vn 0.0000 -0.2038 0.9790
vn -0.6247 -0.0152 -0.7807
vn 1.0000 0.0000 -0.0000
vn 0.9965 0.0837 0.0000
vn 0.2335 -0.1636 -0.9585
vn 0.2378 -0.2339 0.9427
vn 0.2473 -0.0009 0.9689
vn -0.6247 -0.0674 -0.7779
vn 0.8681 -0.2626 0.4213
vn 0.2309 -0.2868 0.9298
vn 0.6911 0.1148 -0.7136
vn -0.2473 -0.0009 0.9689
vn -0.6933 0.1116 -0.7120
vn -0.9701 0.2426 -0.0000
vn 0.6933 0.1116 -0.7119
vn -0.9965 0.0837 -0.0000
vn 0.6247 -0.0674 -0.7779
vn 0.0000 -0.2034 0.9791
vn -0.9701 0.2428 0.0000
vn 0.2425 0.0000 0.9701
vn 0.0279 -0.0760 -0.9967
vn 0.0276 -0.1003 -0.9946
usemtl None
s off
f 52/1/1 56/2/1 57/3/1
f 43/4/2 42/5/2 41/6/2
f 17/7/3 30/8/3 16/9/3
f 35/10/4 36/11/4 34/12/4
f 57/3/1 53/13/1 52/1/1
f 49/14/5 50/15/5 55/16/5
f 42/5/6 43/4/6 48/17/6
f 13/18/7 4/19/7 12/20/7
f 14/21/8 13/22/8 12/23/8
f 52/24/9 51/25/9 41/26/9
f 28/27/10 26/28/10 29/29/10
f 6/30/11 5/31/11 7/32/11
f 37/33/12 42/5/12 46/34/12
f 19/35/13 7/32/13 18/36/13
f 49/37/14 34/12/14 36/11/14
f 54/38/3 32/39/3 33/40/3
f 18/41/15 10/42/15 11/43/15
f 8/44/6 47/45/6 6/30/6
f 35/46/16 34/47/16 14/21/16
f 20/48/17 19/35/17 18/36/17
f 4/19/18 6/30/18 36/49/18
f 40/50/19 38/51/19 3/52/19
f 52/1/20 53/13/20 32/39/20
f 58/53/21 44/54/21 41/6/21
f 23/55/22 29/29/22 26/28/22
f 45/56/23 21/57/23 27/58/23
f 44/54/24 50/59/24 49/60/24
f 5/61/25 13/62/25 15/63/25
f 39/64/26 37/33/26 38/51/26
f 31/65/27 32/39/27 53/13/27
f 57/3/28 29/29/28 25/66/28
f 55/16/29 58/67/29 51/68/29
f 15/69/30 14/21/30 17/7/30
f 9/70/31 10/71/31 16/9/31
f 37/33/2 39/64/2 42/5/2
f 39/64/32 41/6/32 42/5/32
f 41/6/32 44/54/32 43/4/32
f 55/16/33 54/38/33 34/47/33
f 54/38/33 33/40/33 34/47/33
f 33/40/33 31/65/33 34/47/33
f 34/47/33 49/14/33 55/16/33
f 13/18/7 5/31/7 4/19/7
f 14/21/34 15/69/34 13/22/34
f 58/72/9 41/26/9 51/25/9
f 41/26/9 39/73/9 52/24/9
f 39/73/9 40/74/9 52/24/9
f 40/74/9 2/75/9 56/76/9
f 52/24/9 40/74/9 56/76/9
f 28/27/35 56/2/35 59/77/35
f 7/32/11 8/44/11 6/30/11
f 6/30/11 4/19/11 5/31/11
f 46/34/12 47/45/12 19/35/12
f 47/45/12 8/44/12 19/35/12
f 19/35/12 20/48/12 46/34/12
f 20/48/12 37/33/12 46/34/12
f 42/5/12 48/17/12 46/34/12
f 19/35/36 8/44/36 7/32/36
f 18/41/15 7/78/15 10/42/15
f 31/65/16 30/8/16 34/47/16
f 30/8/16 17/7/16 34/47/16
f 17/7/16 14/21/16 34/47/16
f 14/21/16 12/23/16 35/46/16
f 11/79/17 9/70/17 24/80/17
f 24/80/17 25/66/17 23/55/17
f 21/57/17 22/81/17 20/48/17
f 24/80/17 23/55/17 11/79/17
f 23/82/17 21/83/17 11/43/17
f 18/41/17 11/43/17 21/83/17
f 21/57/17 20/48/17 18/36/17
f 3/52/37 2/84/37 40/50/37
f 46/34/18 36/49/18 47/45/18
f 36/49/18 35/85/18 4/19/18
f 47/45/18 36/49/18 6/30/18
f 35/85/18 12/20/18 4/19/18
f 27/58/38 3/52/38 45/56/38
f 56/2/39 28/27/39 57/3/39
f 38/51/40 37/33/40 22/81/40
f 37/33/40 20/48/40 22/81/40
f 32/39/20 54/38/20 51/68/20
f 54/38/41 55/16/41 51/68/41
f 51/68/41 52/1/41 32/39/41
f 58/53/21 50/59/21 44/54/21
f 23/55/22 25/66/22 29/29/22
f 45/56/23 22/81/23 21/57/23
f 49/60/24 36/49/24 44/54/24
f 36/49/24 46/34/24 48/17/24
f 44/54/24 36/49/24 43/4/24
f 48/17/24 43/4/24 36/49/24
f 15/63/42 10/42/42 7/78/42
f 7/78/42 5/61/42 15/63/42
f 38/51/43 45/56/43 3/52/43
f 40/50/26 39/64/26 38/51/26
f 53/13/27 24/80/27 31/65/27
f 24/80/27 9/70/27 31/65/27
f 9/70/27 16/9/27 30/8/27
f 31/65/27 33/40/27 32/39/27
f 9/70/27 30/8/27 31/65/27
f 24/80/28 53/13/28 25/66/28
f 53/13/28 57/3/28 25/66/28
f 55/16/29 50/15/29 58/67/29
f 16/9/30 10/71/30 17/7/30
f 10/71/30 15/69/30 17/7/30
f 9/70/44 11/79/44 10/71/44
f 28/27/10 29/29/10 57/3/10
f 22/81/40 45/56/40 38/51/40
f 59/86/45 56/76/45 2/75/45
f 1/87/46 59/86/46 2/75/46
g blade
v -0.000000 0.331470 -0.684352
v 0.000838 0.329819 -0.684209
v -0.000838 0.329819 -0.684209
v -0.019679 0.336854 -0.664760
v 0.019679 0.336854 -0.664760
v -0.019701 0.336810 -0.326506
v -0.000000 0.375616 -0.668120
v -0.000000 0.375616 -0.288180
v 0.019701 0.336810 -0.326506
v -0.019701 0.105302 -0.464236
v -0.000000 0.070001 -0.469999
v 0.019701 0.105302 -0.464236
vt 0.093430 0.421973
vt 0.000725 0.299019
vt 0.093433 0.311823
vt 0.037233 0.432809
vt 0.093385 0.460141
vt 0.034437 0.450072
vt 0.000138 0.033199
vt 0.093442 0.000340
vt 0.037278 0.432809
vt 0.034482 0.450072
vt 0.000673 0.299019
vt 0.034437 0.432042
vt 0.034482 0.432042
vt 0.034077 0.431983
vt 0.034032 0.431983
vt 0.000071 0.033199
vn -0.8917 0.4527 0.0000
vn 0.6432 0.2642 -0.7187
vn -0.5536 -0.4258 0.7157
vn -0.6432 0.2642 -0.7187
vn 0.8917 0.4527 0.0000
vn 0.5536 -0.4258 0.7157
usemtl None_blade_map_guide.png.001
s off
f 66/88/47 65/89/47 67/90/47
f 60/91/48 66/92/48 64/93/48
f 65/89/49 69/94/49 70/95/49
f 60/96/50 63/97/50 66/92/50
f 66/88/51 68/98/51 64/99/51
f 68/98/52 67/90/52 70/95/52
f 66/88/51 67/90/51 68/98/51
f 66/88/47 63/100/47 65/89/47
f 60/96/50 62/101/50 63/97/50
f 60/91/48 64/93/48 61/102/48
f 68/98/52 70/95/52 71/103/52
f 65/89/49 70/95/49 67/90/49
g handle
v 0.022500 -0.014262 -0.472500
v 0.022500 0.015000 -0.472500
v -0.022500 -0.014262 -0.472500
v -0.022500 0.015000 -0.472500
v 0.022500 -0.014262 0.242500
v -0.022500 -0.014262 0.242500
v 0.022500 0.015000 0.242500
v -0.022500 0.015000 0.242500
v -0.020000 0.070000 0.250000
v -0.030000 0.035000 0.260000
v 0.020000 0.070000 0.250000
v 0.030000 0.035000 0.260000
v 0.030000 0.035000 -0.490000
v 0.020000 0.070000 -0.490000
v -0.030000 -0.035000 0.260000
v 0.030000 -0.035000 0.260000
v 0.020000 -0.070000 0.250000
v -0.020000 -0.070000 0.250000
v -0.030000 -0.035000 -0.490000
v -0.020000 -0.070000 -0.490000
v 0.030000 0.025000 -0.480000
v 0.030000 -0.024262 -0.480000
v 0.030000 -0.024262 0.250000
v -0.030000 -0.024262 -0.480000
v -0.030000 0.025000 -0.480000
v -0.030000 0.025000 0.250000
v 0.030000 0.025000 0.250000
v -0.030000 -0.024262 0.250000
v -0.030000 0.035000 -0.490000
v 0.020000 -0.070000 -0.490000
v 0.030000 -0.035000 -0.490000
v -0.020000 0.070000 -0.490000
vt 0.018352 0.710237
vt 0.004135 0.658487
vt 0.075219 0.710237
vt 0.089436 0.658487
vt 0.000045 0.881494
vt 0.999755 0.882850
vt 0.013309 0.930033
vt 0.999689 0.931370
vt 0.004135 0.558969
vt 0.089436 0.558969
vt 0.075219 0.507219
vt 0.018352 0.507219
vt 0.000045 0.881815
vt 0.999947 0.882728
vt 0.013333 0.930357
vt 0.999903 0.931257
vt 0.969007 0.849841
vt 0.969861 0.809212
vt 0.984250 0.866501
vt 0.984358 0.791771
vt 0.030400 0.808149
vt 0.015253 0.791600
vt 0.969120 0.849108
vt 0.969939 0.808480
vt 0.984379 0.865760
vt 0.984420 0.791033
vt 0.030517 0.807824
vt 0.015384 0.791283
vt 0.015193 0.865735
vt 0.029576 0.848402
vt 0.029677 0.848075
vt 0.015282 0.865417
vt 0.000269 0.775514
vt 0.999955 0.774696
vt 0.015131 0.996293
vt 0.015131 0.942241
vt 0.984869 0.996293
vt 0.984869 0.942240
vt 0.000045 0.775191
vt 0.013359 0.726656
vt 0.999955 0.774814
vt 0.999936 0.726284
vt 0.015071 0.996425
vt 0.015071 0.942373
vt 0.984929 0.996425
vt 0.984929 0.942372
vt 0.013559 0.726984
vt 0.999915 0.726177
vn 0.0000 0.2747 0.9615
vn 0.9615 0.2747 0.0000
vn 0.0000 0.0000 1.0000
vn 0.0000 -0.2747 0.9615
vn -0.9615 -0.2747 0.0000
vn 0.7071 0.0000 0.7071
vn 0.8000 0.6000 0.0000
vn -0.7071 0.0000 0.7071
vn -0.8000 -0.6000 0.0000
vn 0.7071 0.0000 -0.7071
vn -0.7071 0.0000 -0.7071
vn 0.8000 -0.6000 0.0000
vn -0.8000 0.6000 0.0000
vn -1.0000 0.0000 0.0000
vn 0.0000 -1.0000 0.0000
vn 0.9615 -0.2747 0.0000
vn 1.0000 0.0000 0.0000
vn 0.0000 1.0000 0.0000
vn -0.9615 0.2747 0.0000
usemtl None
s off
f 80/104/53 81/105/53 82/106/53
f 82/106/53 81/105/53 83/107/53
f 83/108/54 84/109/54 82/110/54
f 82/110/54 84/109/54 85/111/54
f 81/105/55 86/112/55 83/107/55
f 83/107/55 86/112/55 87/113/55
f 87/113/56 86/112/56 88/114/56
f 88/114/56 86/112/56 89/115/56
f 86/116/57 90/117/57 89/118/57
f 89/118/57 90/117/57 91/119/57
f 73/120/58 72/121/58 92/122/58
f 92/122/58 72/121/58 93/123/58
f 72/121/59 76/124/59 93/123/59
f 93/123/59 76/124/59 94/125/59
f 74/126/60 75/127/60 95/128/60
f 95/128/60 75/127/60 96/129/60
f 75/127/61 79/130/61 96/129/61
f 96/129/61 79/130/61 97/131/61
f 98/132/62 94/125/62 78/133/62
f 78/133/62 94/125/62 76/124/62
f 79/130/63 77/134/63 97/131/63
f 97/131/63 77/134/63 99/135/63
f 92/122/64 98/132/64 73/120/64
f 73/120/64 98/132/64 78/133/64
f 95/128/65 99/135/65 74/126/65
f 74/126/65 99/135/65 77/134/65
f 97/131/66 81/136/66 96/129/66
f 96/129/66 81/136/66 100/137/66
f 96/129/66 100/137/66 95/128/66
f 95/128/66 100/137/66 90/117/66
f 95/128/66 90/117/66 86/116/66
f 97/131/66 99/135/66 81/136/66
f 81/136/66 99/135/66 86/116/66
f 86/116/66 99/135/66 95/128/66
f 88/138/67 89/139/67 101/140/67
f 101/140/67 89/139/67 91/141/67
f 87/142/68 88/143/68 102/144/68
f 102/144/68 88/143/68 101/145/68
f 94/125/69 87/142/69 93/123/69
f 93/123/69 87/142/69 102/144/69
f 93/123/69 102/144/69 84/109/69
f 87/142/69 94/125/69 83/108/69
f 83/108/69 94/125/69 98/132/69
f 83/108/69 98/132/69 92/122/69
f 83/108/69 92/122/69 84/109/69
f 84/109/69 92/122/69 93/123/69
f 80/146/70 82/147/70 103/148/70
f 103/148/70 82/147/70 85/149/70
f 81/136/71 80/150/71 100/137/71
f 100/137/71 80/150/71 103/151/71
g trace
v -0.022500 0.015000 0.242500
v -0.022500 0.015000 -0.470000
v -0.022500 -0.014262 0.242500
v -0.022500 -0.014262 -0.470000
v 0.022500 -0.014262 0.242500
v 0.022500 -0.014262 -0.470000
v 0.022500 0.015000 0.242500
v 0.022500 0.015000 -0.470000
vt 0.484424 0.999980
vt 0.484424 0.000020
vt 0.525492 0.999980
vt 0.525492 0.000020
vt 0.484435 1.000002
vt 0.484435 0.000043
vt 0.525503 1.000002
vt 0.525503 0.000043
vn -1.0000 0.0000 0.0000
vn 1.0000 0.0000 0.0000
usemtl None_vertical_gradient.png
s off
f 104/152/72 105/153/72 106/154/72
f 106/154/72 105/153/72 107/155/72
f 108/156/73 109/157/73 110/158/73
f 110/158/73 109/157/73 111/159/73
g gem
v 0.035000 -0.271683 -0.597042
v 0.035000 -0.325295 -0.572042
v 0.000000 -0.277225 -0.622042
v 0.000000 -0.384450 -0.572042
v 0.035000 -0.271683 -0.547042
v 0.000000 -0.277225 -0.522042
v 0.035000 -0.182768 -0.547042
v 0.000000 -0.177225 -0.522042
v 0.035000 -0.129155 -0.572042
v 0.000000 -0.070000 -0.572042
v 0.000000 -0.177225 -0.622042
v 0.035000 -0.182768 -0.597042
v -0.035000 -0.271683 -0.597042
v -0.035000 -0.182768 -0.597042
v -0.035000 -0.129155 -0.572042
v -0.035000 -0.182768 -0.547042
v -0.035000 -0.271683 -0.547042
v -0.035000 -0.325295 -0.572042
vt 0.847419 0.295138
vt 0.789976 0.175785
vt 0.958711 0.263429
vt 0.793632 0.001622
vt 0.724877 0.295214
vt 0.609676 0.259694
vt 0.720969 0.507999
vt 0.609676 0.539708
vt 0.778412 0.627353
vt 0.774755 0.801516
vt 0.958712 0.543444
vt 0.843510 0.507923
vt 0.715034 0.297675
vt 0.711126 0.510460
vt 0.599833 0.262155
vt 0.599833 0.542169
vt 0.768569 0.629813
vt 0.764912 0.803977
vt 0.833667 0.510384
vt 0.948869 0.545905
vt 0.837575 0.297599
vt 0.948868 0.265890
vt 0.783789 0.004082
vt 0.780132 0.178245
vn 0.5812 -0.3439 -0.7375
vn 0.5812 -0.3439 0.7375
vn 0.5812 0.0000 0.8137
vn 0.5812 0.3439 0.7375
vn 0.5812 0.3439 -0.7375
vn 0.5812 0.0000 -0.8137
vn 1.0000 0.0000 0.0000
vn -0.5812 0.0000 -0.8137
vn -0.5812 0.3439 -0.7375
vn -0.5812 0.3439 0.7375
vn -0.5812 0.0000 0.8137
vn -0.5812 -0.3439 0.7375
vn -0.5812 -0.3439 -0.7375
vn -1.0000 0.0000 0.0000
usemtl None_blade_map_guide.png.001
s off
f 112/160/74 113/161/74 114/162/74
f 114/162/74 113/161/74 115/163/74
f 116/164/75 117/165/75 113/161/75
f 113/161/75 117/165/75 115/163/75
f 116/164/76 118/166/76 117/165/76
f 117/165/76 118/166/76 119/167/76
f 118/166/77 120/168/77 119/167/77
f 119/167/77 120/168/77 121/169/77
f 121/169/78 120/168/78 122/170/78
f 122/170/78 120/168/78 123/171/78
f 114/162/79 122/170/79 112/160/79
f 112/160/79 122/170/79 123/171/79
f 112/160/80 123/171/80 113/161/80
f 113/161/80 123/171/80 120/168/80
f 113/161/80 120/168/80 116/164/80
f 116/164/80 120/168/80 118/166/80
f 124/172/81 125/173/81 114/174/81
f 114/174/81 125/173/81 122/175/81
f 125/173/82 126/176/82 122/175/82
f 122/175/82 126/176/82 121/177/82
f 127/178/83 119/179/83 126/176/83
f 126/176/83 119/179/83 121/177/83
f 127/178/84 128/180/84 119/179/84
f 119/179/84 128/180/84 117/181/84
f 115/182/85 117/181/85 129/183/85
f 129/183/85 117/181/85 128/180/85
f 115/182/86 129/183/86 114/174/86
f 114/174/86 129/183/86 124/172/86
f 125/173/87 124/172/87 126/176/87
f 126/176/87 124/172/87 129/183/87
f 126/176/87 129/183/87 127/178/87
f 127/178/87 129/183/87 128/180/87
