# Blender v2.79 (sub 0) OBJ File: 'bow-v2-pre-join.blend'
# www.blender.org
mtllib bow.mtl
g bow_handle
v 0.025000 0.207128 -0.210959
v 0.025000 0.135000 -0.125000
v 0.050000 0.187128 -0.218238
v 0.050000 0.108892 -0.125000
v 0.025000 0.207128 -0.335000
v 0.050000 0.187128 -0.315000
v 0.025000 0.152128 -0.335000
v 0.050000 0.166166 -0.315000
v 0.025000 0.114990 -0.232246
v 0.050000 0.132593 -0.222110
v 0.050000 0.051108 -0.125000
v 0.025000 0.025000 -0.125000
v -0.025000 0.025000 -0.125000
v -0.050000 0.051108 -0.125000
v -0.025000 0.114990 -0.232246
v -0.050000 0.132593 -0.222110
v -0.050000 0.166166 -0.315000
v -0.025000 0.152128 -0.335000
v -0.050000 0.187128 -0.315000
v -0.025000 0.207128 -0.335000
v -0.050000 0.187128 -0.218238
v -0.025000 0.207128 -0.210959
v -0.050000 0.108892 -0.125000
v -0.025000 0.135000 -0.125000
v -0.025000 0.025000 -0.125000
v 0.025000 0.025000 -0.125000
v -0.025000 0.025000 0.125000
v 0.025000 0.025000 0.125000
v -0.050000 0.051108 -0.125000
v -0.050000 0.051108 0.125000
v -0.050000 0.108892 -0.125000
v -0.050000 0.108892 0.125000
v -0.025000 0.135000 -0.125000
v -0.025000 0.135000 0.125000
v 0.025000 0.135000 -0.125000
v 0.025000 0.135000 0.125000
v 0.050000 0.108892 -0.125000
v 0.050000 0.108892 0.125000
v 0.050000 0.051108 -0.125000
v 0.050000 0.051108 0.125000
v -0.025000 0.207128 0.210959
v -0.025000 0.135000 0.125000
v -0.050000 0.187128 0.218238
v -0.050000 0.108892 0.125000
v -0.025000 0.207128 0.335000
v -0.050000 0.187128 0.315000
v -0.025000 0.152128 0.335000
v -0.050000 0.166166 0.315000
v -0.025000 0.114990 0.232246
v -0.050000 0.132593 0.222110
v -0.050000 0.051108 0.125000
v -0.025000 0.025000 0.125000
v 0.025000 0.025000 0.125000
v 0.050000 0.051108 0.125000
v 0.025000 0.114990 0.232246
v 0.050000 0.132593 0.222110
v 0.050000 0.166166 0.315000
v 0.025000 0.152128 0.335000
v 0.050000 0.187128 0.315000
v 0.025000 0.207128 0.335000
v 0.050000 0.187128 0.218238
v 0.025000 0.207128 0.210959
v 0.050000 0.108892 0.125000
v 0.025000 0.135000 0.125000
vt 0.685194 0.133606
vt 0.509596 0.126238
vt 0.687682 0.083615
vt 0.484907 0.071187
vt 0.849554 0.145022
vt 0.847020 0.088815
vt 0.936543 0.127032
vt 0.887611 0.074574
vt 0.643104 0.230236
vt 0.823534 0.224886
vt 0.642337 0.284823
vt 0.803786 0.275761
vt 0.437431 0.272203
vt 0.413843 0.222454
vt 0.489237 0.343604
vt 0.680511 0.365520
vt 0.816834 0.305294
vt 0.414074 0.147051
vt 0.438823 0.097274
vt 0.645231 0.142670
vt 0.645074 0.088140
vt 0.804901 0.099768
vt 0.823534 0.150416
vt 0.886625 0.272356
vt 0.849750 0.258759
vt 0.932086 0.225142
vt 0.854861 0.204130
vt 0.688870 0.262079
vt 0.687015 0.211397
vt 0.482327 0.272356
vt 0.508102 0.216610
vt 0.492404 0.026394
vt 0.684444 0.008368
vt 0.818414 0.070745
vt 0.404105 0.215401
vt 0.404105 0.295944
vt 0.001394 0.215401
vt 0.001394 0.295944
vt 0.404105 0.157174
vt 0.001394 0.157174
vt 0.404105 0.064093
vt 0.001394 0.064093
vt 0.404105 0.005865
vt 0.001394 0.005865
vt 0.404236 0.215487
vt 0.404236 0.296029
vt 0.001525 0.215487
vt 0.001525 0.296029
vt 0.404236 0.157259
vt 0.001525 0.157259
vt 0.404236 0.064179
vt 0.001525 0.064179
vt 0.404236 0.005951
vt 0.001525 0.005951
vt 0.685194 0.133606
vt 0.509596 0.126238
vt 0.687682 0.083615
vt 0.484907 0.071187
vt 0.849554 0.145022
vt 0.847020 0.088815
vt 0.936543 0.127032
vt 0.887611 0.074574
vt 0.643104 0.230236
vt 0.823534 0.224886
vt 0.642337 0.284823
vt 0.803786 0.275761
vt 0.437431 0.272203
vt 0.413843 0.222454
vt 0.489237 0.343604
vt 0.680511 0.365520
vt 0.816834 0.305294
vt 0.414074 0.147051
vt 0.438823 0.097274
vt 0.645231 0.142670
vt 0.645074 0.088140
vt 0.804901 0.099768
vt 0.823534 0.150416
vt 0.886625 0.272356
vt 0.849750 0.258759
vt 0.932086 0.225142
vt 0.854861 0.204130
vt 0.688870 0.262079
vt 0.687015 0.211397
vt 0.482327 0.272356
vt 0.508102 0.216610
vt 0.492404 0.026394
vt 0.684444 0.008368
vt 0.818414 0.070745
vn 0.6247 0.5982 0.5019
vn 0.6247 0.7809 0.0000
vn 0.6247 0.0000 -0.7809
vn 0.6247 -0.7344 -0.2654
vn 0.6247 -0.5982 -0.5019
vn 1.0000 0.0000 0.0000
vn -0.6247 -0.5982 -0.5019
vn -0.6247 -0.7344 -0.2654
vn -0.6247 0.0000 -0.7809
vn -0.6247 0.7809 0.0000
vn -0.6247 0.5982 0.5019
vn -1.0000 0.0000 0.0000
vn 0.0000 -0.7660 -0.6428
vn 0.0000 0.0000 -1.0000
vn 0.0000 -0.9405 -0.3399
vn 0.0000 0.7660 0.6428
vn 0.0000 1.0000 0.0000
vn 0.0000 -1.0000 0.0000
vn -0.7223 -0.6916 0.0000
vn -0.7223 0.6916 0.0000
vn 0.7223 0.6916 0.0000
vn 0.7223 -0.6916 0.0000
vn -0.6247 0.5982 -0.5019
vn -0.6247 0.0000 0.7809
vn -0.6247 -0.7344 0.2654
vn -0.6247 -0.5982 0.5019
vn 0.6247 -0.5982 0.5019
vn 0.6247 -0.7344 0.2654
vn 0.6247 0.0000 0.7809
vn 0.6247 0.5982 -0.5019
vn 0.0000 -0.7660 0.6428
vn 0.0000 0.0000 1.0000
vn 0.0000 -0.9405 0.3399
vn 0.0000 0.7660 -0.6428
usemtl None
s off
f 1/1/1 2/2/1 3/3/1
f 3/3/1 2/2/1 4/4/1
f 5/5/2 1/1/2 6/6/2
f 6/6/2 1/1/2 3/3/2
f 5/5/3 6/6/3 7/7/3
f 7/7/3 6/6/3 8/8/3
f 9/9/4 7/10/4 10/11/4
f 10/11/4 7/10/4 8/12/4
f 10/11/5 11/13/5 9/9/5
f 9/9/5 11/13/5 12/14/5
f 11/13/6 10/11/6 4/15/6
f 4/15/6 10/11/6 3/16/6
f 3/16/6 10/11/6 8/12/6
f 3/16/6 8/12/6 6/17/6
f 13/18/7 14/19/7 15/20/7
f 15/20/7 14/19/7 16/21/7
f 17/22/8 18/23/8 16/21/8
f 16/21/8 18/23/8 15/20/8
f 17/24/9 19/25/9 18/26/9
f 18/26/9 19/25/9 20/27/9
f 21/28/10 22/29/10 19/25/10
f 19/25/10 22/29/10 20/27/10
f 23/30/11 24/31/11 21/28/11
f 21/28/11 24/31/11 22/29/11
f 14/19/12 23/32/12 16/21/12
f 16/21/12 23/32/12 21/33/12
f 16/21/12 21/33/12 17/22/12
f 17/22/12 21/33/12 19/34/12
f 9/9/13 12/14/13 15/20/13
f 15/20/13 12/14/13 13/18/13
f 5/5/14 7/7/14 20/27/14
f 20/27/14 7/7/14 18/26/14
f 7/10/15 9/9/15 18/23/15
f 18/23/15 9/9/15 15/20/15
f 2/2/16 1/1/16 24/31/16
f 24/31/16 1/1/16 22/29/16
f 1/1/17 5/5/17 22/29/17
f 22/29/17 5/5/17 20/27/17
f 25/35/18 26/36/18 27/37/18
f 27/37/18 26/36/18 28/38/18
f 29/39/19 25/35/19 30/40/19
f 30/40/19 25/35/19 27/37/19
f 31/41/12 29/39/12 32/42/12
f 32/42/12 29/39/12 30/40/12
f 33/43/20 31/41/20 34/44/20
f 34/44/20 31/41/20 32/42/20
f 35/45/17 33/46/17 36/47/17
f 36/47/17 33/46/17 34/48/17
f 37/49/21 35/45/21 38/50/21
f 38/50/21 35/45/21 36/47/21
f 39/51/6 37/49/6 40/52/6
f 40/52/6 37/49/6 38/50/6
f 26/53/22 39/51/22 28/54/22
f 28/54/22 39/51/22 40/52/22
f 41/55/23 42/56/23 43/57/23
f 43/57/23 42/56/23 44/58/23
f 45/59/10 41/55/10 46/60/10
f 46/60/10 41/55/10 43/57/10
f 45/59/24 46/60/24 47/61/24
f 47/61/24 46/60/24 48/62/24
f 49/63/25 47/64/25 50/65/25
f 50/65/25 47/64/25 48/66/25
f 50/65/26 51/67/26 49/63/26
f 49/63/26 51/67/26 52/68/26
f 51/67/12 50/65/12 44/69/12
f 44/69/12 50/65/12 43/70/12
f 43/70/12 50/65/12 48/66/12
f 43/70/12 48/66/12 46/71/12
f 53/72/27 54/73/27 55/74/27
f 55/74/27 54/73/27 56/75/27
f 57/76/28 58/77/28 56/75/28
f 56/75/28 58/77/28 55/74/28
f 57/78/29 59/79/29 58/80/29
f 58/80/29 59/79/29 60/81/29
f 61/82/2 62/83/2 59/79/2
f 59/79/2 62/83/2 60/81/2
f 63/84/30 64/85/30 61/82/30
f 61/82/30 64/85/30 62/83/30
f 54/73/6 63/86/6 56/75/6
f 56/75/6 63/86/6 61/87/6
f 56/75/6 61/87/6 57/76/6
f 57/76/6 61/87/6 59/88/6
f 49/63/31 52/68/31 55/74/31
f 55/74/31 52/68/31 53/72/31
f 45/59/32 47/61/32 60/81/32
f 60/81/32 47/61/32 58/80/32
f 47/64/33 49/63/33 58/77/33
f 58/77/33 49/63/33 55/74/33
f 42/56/34 41/55/34 64/85/34
f 64/85/34 41/55/34 62/83/34
f 41/55/17 45/59/17 62/83/17
f 62/83/17 45/59/17 60/81/17
g bow_gem
v 0.030000 -0.112584 -0.699730
v 0.015000 -0.097584 -0.705943
v 0.030000 -0.112584 -0.657156
v 0.015000 -0.097584 -0.650943
v 0.030000 -0.125084 -0.712230
v 0.015000 -0.125084 -0.733443
v 0.030000 -0.137584 -0.699730
v 0.015000 -0.152584 -0.705943
v 0.030000 -0.137584 -0.657156
v 0.015000 -0.152584 -0.650943
v 0.015000 -0.125084 -0.623443
v 0.030000 -0.125084 -0.644656
v -0.015000 -0.152584 -0.650943
v -0.015000 -0.125084 -0.623443
v -0.015000 -0.097584 -0.650943
v -0.015000 -0.097584 -0.705943
v -0.030000 -0.112584 -0.699730
v -0.030000 -0.112584 -0.657156
v -0.030000 -0.125084 -0.644656
v -0.030000 -0.137584 -0.657156
v -0.030000 -0.137584 -0.699730
v -0.015000 -0.152584 -0.705943
v -0.015000 -0.125084 -0.733443
v -0.030000 -0.125084 -0.712230
vt 0.844812 0.379817
vt 0.993214 0.321873
vt 0.835237 0.654218
vt 0.970189 0.725353
vt 0.761105 0.306061
vt 0.766378 0.121107
vt 0.673331 0.374928
vt 0.528472 0.308623
vt 0.667258 0.649428
vt 0.528472 0.712759
vt 0.744190 0.899366
vt 0.749227 0.722668
vt 0.948149 0.719292
vt 0.948149 0.981621
vt 0.745792 0.719292
vt 0.745791 0.981621
vt 0.716262 0.957014
vt 0.716262 0.694685
vt 0.918620 0.957013
vt 0.918620 0.694685
vt 0.716262 0.323696
vt 0.918620 0.323696
vt 0.643171 0.360897
vt 0.637113 0.634725
vt 0.498667 0.294755
vt 0.498667 0.697902
vt 0.718882 0.707787
vt 0.713857 0.884051
vt 0.804681 0.639503
vt 0.939303 0.710464
vt 0.814233 0.365774
vt 0.962271 0.307972
vt 0.735990 0.107698
vt 0.730730 0.292199
vt 0.948149 0.085975
vt 0.948149 0.348303
vt 0.745791 0.085975
vt 0.745792 0.348303
vt 0.716262 0.061367
vt 0.918620 0.061367
vn 0.7071 0.7071 0.0000
vn 0.7071 0.5000 -0.5000
vn 0.7071 -0.5000 -0.5000
vn 0.7071 -0.7071 0.0000
vn 0.7071 -0.5000 0.5000
vn 0.7071 0.5000 0.5000
vn 0.0000 -0.7071 0.7071
vn 0.0000 0.7071 0.7071
vn 0.0000 1.0000 0.0000
vn 1.0000 0.0000 0.0000
vn -0.7071 0.7071 0.0000
vn -0.7071 0.5000 0.5000
vn -0.7071 -0.5000 0.5000
vn -0.7071 -0.7071 0.0000
vn -0.7071 -0.5000 -0.5000
vn -0.7071 0.5000 -0.5000
vn 0.0000 -0.7071 -0.7071
vn 0.0000 0.7071 -0.7071
vn -1.0000 0.0000 0.0000
vn 0.0000 -1.0000 0.0000
usemtl None_vertical_gradient.png
s off
f 65/89/35 66/90/35 67/91/35
f 67/91/35 66/90/35 68/92/35
f 69/93/36 70/94/36 65/89/36
f 65/89/36 70/94/36 66/90/36
f 69/93/37 71/95/37 70/94/37
f 70/94/37 71/95/37 72/96/37
f 71/95/38 73/97/38 72/96/38
f 72/96/38 73/97/38 74/98/38
f 74/98/39 73/97/39 75/99/39
f 75/99/39 73/97/39 76/100/39
f 68/92/40 75/99/40 67/91/40
f 67/91/40 75/99/40 76/100/40
f 74/101/41 75/102/41 77/103/41
f 77/103/41 75/102/41 78/104/41
f 75/105/42 68/106/42 78/107/42
f 78/107/42 68/106/42 79/108/42
f 68/106/43 66/109/43 79/108/43
f 79/108/43 66/109/43 80/110/43
f 67/91/44 76/100/44 65/89/44
f 65/89/44 76/100/44 69/93/44
f 69/93/44 76/100/44 71/95/44
f 71/95/44 76/100/44 73/97/44
f 81/111/45 82/112/45 80/113/45
f 80/113/45 82/112/45 79/114/45
f 83/115/46 78/116/46 82/112/46
f 82/112/46 78/116/46 79/114/46
f 83/115/47 84/117/47 78/116/47
f 78/116/47 84/117/47 77/118/47
f 85/119/48 86/120/48 84/117/48
f 84/117/48 86/120/48 77/118/48
f 86/120/49 85/119/49 87/121/49
f 87/121/49 85/119/49 88/122/49
f 80/113/50 87/121/50 81/111/50
f 81/111/50 87/121/50 88/122/50
f 70/123/51 72/124/51 87/125/51
f 87/125/51 72/124/51 86/126/51
f 66/109/52 70/127/52 80/110/52
f 80/110/52 70/127/52 87/128/52
f 82/112/53 81/111/53 83/115/53
f 83/115/53 81/111/53 88/122/53
f 83/115/53 88/122/53 85/119/53
f 85/119/53 84/117/53 83/115/53
f 72/124/54 74/101/54 86/126/54
f 86/126/54 74/101/54 77/103/54
g bow_arm
v -0.027719 -0.067205 -0.661827
v -0.010000 -0.105084 -0.668506
v -0.020000 -0.072083 -0.660187
v -0.000000 -0.102925 -0.663062
v -0.017417 -0.065692 -0.656497
v 0.000000 -0.105084 -0.663907
v 0.017417 -0.065692 -0.656497
v 0.010000 -0.105084 -0.668506
v 0.020000 -0.072083 -0.660187
v 0.027719 -0.067205 -0.661827
v 0.040000 -0.040951 -0.653760
v 0.040000 -0.040951 -0.661826
v 0.040000 -0.040952 -0.661826
v 0.024986 -0.073047 -0.682730
v 0.010000 -0.105084 -0.688380
v -0.010000 -0.105084 -0.688380
v 0.000000 -0.105084 -0.692978
v 0.020000 -0.060170 -0.685523
v 0.000000 -0.102925 -0.693062
v 0.020000 -0.034006 -0.680910
v -0.020000 -0.060170 -0.685523
v -0.020000 -0.034006 -0.680910
v -0.024986 -0.073047 -0.682730
v -0.040000 -0.040951 -0.653760
v -0.040000 -0.040951 -0.661826
v -0.040000 -0.040952 -0.661826
v -0.020000 0.111843 -0.596704
v -0.040000 0.098789 -0.581147
v -0.040000 0.096059 -0.574657
v -0.040000 0.158934 -0.499726
v -0.040000 0.183756 -0.479886
v -0.040000 0.192128 -0.408526
v -0.040000 0.222128 -0.374462
v -0.040000 0.192128 -0.222173
v -0.040000 0.222128 -0.222173
v -0.040000 0.207128 -0.190005
v 0.020000 0.111843 -0.596704
v 0.040000 0.098789 -0.581147
v 0.040000 0.096059 -0.574657
v 0.040000 0.158934 -0.499726
v 0.040000 0.183756 -0.479886
v 0.040000 0.192128 -0.408526
v 0.040000 0.222128 -0.374462
v 0.040000 0.192128 -0.222173
v 0.040000 0.222128 -0.222173
v 0.040000 0.207128 -0.190005
v 0.020000 0.064212 -0.581497
v -0.020000 0.064212 -0.581497
v -0.020000 0.201344 -0.490041
v -0.020000 0.242128 -0.377989
v 0.020000 0.201344 -0.490041
v 0.020000 0.242128 -0.377989
v -0.020000 0.242128 -0.217739
v 0.020000 0.141346 -0.489572
v 0.020000 0.172128 -0.405000
v -0.020000 0.141346 -0.489572
v -0.020000 0.172128 -0.405000
v 0.020000 0.242128 -0.217739
v 0.020000 0.172128 -0.217739
v 0.020000 0.207128 -0.142681
v -0.020000 0.207128 -0.142681
v -0.020000 0.172128 -0.217739
vt 0.937868 0.660257
vt 0.990690 0.687764
vt 0.943184 0.672376
vt 0.985217 0.702587
vt 0.932325 0.676246
vt 0.988379 0.702586
vt 0.932421 0.728886
vt 0.990690 0.717398
vt 0.943260 0.732764
vt 0.937949 0.744864
vt 0.865037 0.803933
vt 0.908055 0.791325
vt 0.871386 0.814137
vt 0.492368 0.238987
vt 0.492442 0.238819
vt 0.492368 0.238987
vt 0.887311 0.812840
vt 0.934295 0.817664
vt 0.939373 0.851218
vt 0.997974 0.841691
vt 0.990536 0.873510
vt 0.491013 0.237176
vt 0.490971 0.237301
vt 0.490971 0.237120
vt 0.490910 0.237303
vt 0.490909 0.237122
vt 0.490868 0.237247
vt 0.919920 0.860842
vt 0.987923 0.891251
vt 0.489182 0.237981
vt 0.489158 0.238018
vt 0.489172 0.237973
vt 0.878216 0.858756
vt 0.919918 0.921469
vt 0.877623 0.923196
vt 0.489204 0.237909
vt 0.990534 0.908991
vt 0.939361 0.931175
vt 0.864420 0.977780
vt 0.870757 0.967625
vt 0.907248 0.990395
vt 0.491130 0.237145
vt 0.491202 0.237152
vt 0.491202 0.237152
vt 0.934157 0.964899
vt 0.886738 0.969656
vt 0.997974 0.940827
vt 0.489625 0.237921
vt 0.489625 0.237921
vt 0.489576 0.238096
vt 0.634298 0.919672
vt 0.633376 0.960403
vt 0.629773 0.969720
vt 0.489300 0.960979
vt 0.448940 0.949121
vt 0.364064 0.974014
vt 0.310043 0.948935
vt 0.116731 0.997627
vt 0.123180 0.955007
vt 0.072384 0.961298
vt 0.492452 0.239074
vt 0.633963 0.861944
vt 0.633057 0.821054
vt 0.629444 0.811698
vt 0.488388 0.820515
vt 0.447933 0.832422
vt 0.363117 0.807721
vt 0.309231 0.832878
vt 0.116551 0.784829
vt 0.122716 0.827103
vt 0.072734 0.820446
vt 0.899646 0.763622
vt 0.705885 0.731965
vt 0.663340 0.768331
vt 0.706123 0.672931
vt 0.899530 0.641463
vt 0.663611 0.636762
vt 0.449638 0.914374
vt 0.309783 0.914528
vt 0.448646 0.867155
vt 0.309049 0.867236
vt 0.121681 0.916730
vt 0.532439 0.731468
vt 0.533394 0.770773
vt 0.399661 0.772846
vt 0.399983 0.732651
vt 0.532937 0.674567
vt 0.400526 0.674479
vt 0.533605 0.635266
vt 0.399993 0.634183
vt 0.120865 0.865123
vt 0.144922 0.728643
vt 0.144736 0.766097
vt 0.036626 0.731470
vt 0.096416 0.767853
vt 0.002938 0.856676
vt 0.001386 0.923550
vt 0.096241 0.639574
vt 0.143987 0.641475
vt 0.037028 0.675325
vt 0.144032 0.678794
vn -0.3937 -0.3351 0.8560
vn 0.0000 -0.1736 0.9848
vn 0.3937 -0.3351 0.8560
vn 0.9058 -0.4237 0.0000
vn 0.8615 -0.5078 0.0000
vn 0.0000 -1.0000 0.0000
vn 0.4176 -0.0352 -0.9080
vn 0.7071 0.1228 -0.6964
vn 0.0000 0.1736 -0.9848
vn -0.4176 -0.0352 -0.9080
vn -0.9058 -0.4237 0.0000
vn -0.8270 -0.5621 -0.0033
vn -0.7071 0.1228 -0.6964
vn -0.7160 0.4200 -0.5577
vn -0.7071 0.3536 -0.6124
vn -1.0000 0.0000 0.0000
vn 0.7160 0.4200 -0.5577
vn 0.7071 0.3536 -0.6124
vn 1.0000 0.0000 0.0000
vn 0.4472 -0.4472 0.7746
vn -0.0000 -0.5000 0.8660
vn -0.4472 -0.4472 0.7746
vn -0.7071 0.5417 -0.4545
vn -0.7071 0.6645 -0.2418
vn 0.0000 0.5000 -0.8660
vn 0.0000 0.7660 -0.6428
vn 0.0000 0.9397 -0.3420
vn -0.7071 0.7071 0.0000
vn 0.7071 -0.5417 0.4545
vn 0.7071 -0.6645 0.2418
vn 0.0000 -0.7660 0.6428
vn 0.0000 -0.9397 0.3420
vn -0.7071 -0.6645 0.2418
vn -0.7071 -0.5417 0.4545
vn 0.7071 0.6645 -0.2418
vn 0.7071 0.5417 -0.4545
vn 0.7071 0.7071 0.0000
vn 0.7071 -0.7071 0.0000
vn 0.7071 -0.6409 0.2988
vn 0.7071 0.6409 0.2988
vn -0.7071 0.6409 0.2988
vn -0.7071 -0.6409 0.2988
vn -0.7071 -0.7071 0.0000
vn 0.0000 1.0000 0.0000
vn 0.0000 0.9063 0.4226
vn 0.0000 -0.9063 0.4226
usemtl None
s off
f 89/129/55 90/130/55 91/131/55
f 91/131/55 90/130/55 92/132/55
f 91/131/55 92/132/55 93/133/55
f 90/130/55 94/134/55 92/132/55
f 93/133/56 92/132/56 95/135/56
f 94/134/57 96/136/57 92/132/57
f 92/132/57 96/136/57 97/137/57
f 92/132/57 97/137/57 95/135/57
f 96/136/57 98/138/57 97/137/57
f 99/139/58 98/140/58 100/141/58
f 100/142/59 98/143/59 101/144/59
f 101/145/58 98/146/58 102/147/58
f 102/147/58 98/146/58 96/148/58
f 102/147/58 96/148/58 103/149/58
f 90/150/60 104/151/60 94/152/60
f 94/152/60 104/151/60 105/153/60
f 94/152/60 105/153/60 96/154/60
f 96/154/60 105/153/60 103/155/60
f 102/147/61 103/149/61 106/156/61
f 106/156/61 103/149/61 107/157/61
f 107/158/61 103/159/61 105/160/61
f 102/147/62 106/156/62 101/145/62
f 101/145/62 106/156/62 108/161/62
f 107/157/63 109/162/63 106/156/63
f 106/156/63 109/162/63 110/163/63
f 106/156/63 110/163/63 108/161/63
f 105/160/64 104/164/64 107/158/64
f 107/157/64 104/165/64 109/162/64
f 109/162/64 104/165/64 111/166/64
f 112/167/65 113/168/65 89/169/65
f 89/170/66 113/171/66 114/172/66
f 89/173/65 114/174/65 111/166/65
f 104/165/65 90/175/65 111/166/65
f 111/166/65 90/175/65 89/173/65
f 111/166/67 114/174/67 109/162/67
f 109/162/67 114/174/67 110/163/67
f 114/176/68 113/177/68 110/178/68
f 110/163/69 113/168/69 115/179/69
f 115/179/69 113/168/69 116/180/69
f 112/167/70 117/181/70 113/168/70
f 113/168/70 117/181/70 116/180/70
f 116/180/70 117/181/70 118/182/70
f 116/180/70 118/182/70 119/183/70
f 119/183/70 118/182/70 120/184/70
f 119/183/70 120/184/70 121/185/70
f 121/185/70 120/184/70 122/186/70
f 121/185/70 122/186/70 123/187/70
f 123/187/70 122/186/70 124/188/70
f 101/144/71 108/189/71 100/142/71
f 100/141/72 108/161/72 125/190/72
f 100/141/72 125/190/72 126/191/72
f 99/139/73 100/141/73 127/192/73
f 127/192/73 100/141/73 126/191/73
f 127/192/73 126/191/73 128/193/73
f 128/193/73 126/191/73 129/194/73
f 128/193/73 129/194/73 130/195/73
f 130/195/73 129/194/73 131/196/73
f 130/195/73 131/196/73 132/197/73
f 132/197/73 131/196/73 133/198/73
f 132/197/73 133/198/73 134/199/73
f 98/138/74 99/200/74 97/137/74
f 97/137/74 99/200/74 135/201/74
f 135/201/74 99/200/74 127/202/74
f 97/137/75 135/201/75 95/135/75
f 95/135/75 135/201/75 136/203/75
f 95/135/75 136/203/75 93/133/75
f 93/133/75 136/203/75 91/131/75
f 89/129/76 91/131/76 112/204/76
f 112/204/76 91/131/76 136/203/76
f 112/204/76 136/203/76 117/205/76
f 116/180/77 119/183/77 115/179/77
f 115/179/77 119/183/77 137/206/77
f 119/183/78 121/185/78 137/206/78
f 137/206/78 121/185/78 138/207/78
f 110/163/79 115/179/79 108/161/79
f 108/161/79 115/179/79 125/190/79
f 115/179/80 137/206/80 125/190/80
f 125/190/80 137/206/80 139/208/80
f 137/206/81 138/207/81 139/208/81
f 139/208/81 138/207/81 140/209/81
f 121/185/82 123/187/82 138/207/82
f 138/207/82 123/187/82 141/210/82
f 135/201/83 127/202/83 142/211/83
f 142/211/83 127/202/83 128/212/83
f 130/213/84 143/214/84 128/212/84
f 128/212/84 143/214/84 142/211/84
f 135/201/85 142/211/85 136/203/85
f 136/203/85 142/211/85 144/215/85
f 142/211/86 143/214/86 144/215/86
f 144/215/86 143/214/86 145/216/86
f 144/215/87 145/216/87 118/217/87
f 118/217/87 145/216/87 120/218/87
f 118/217/88 117/205/88 144/215/88
f 144/215/88 117/205/88 136/203/88
f 140/209/89 131/196/89 139/208/89
f 139/208/89 131/196/89 129/194/89
f 139/208/90 129/194/90 125/190/90
f 125/190/90 129/194/90 126/191/90
f 131/196/91 140/209/91 133/198/91
f 133/198/91 140/209/91 146/219/91
f 147/220/92 143/214/92 132/221/92
f 132/221/92 143/214/92 130/213/92
f 147/220/93 132/221/93 148/222/93
f 148/222/93 132/221/93 134/223/93
f 146/219/94 148/224/94 133/198/94
f 133/198/94 148/224/94 134/199/94
f 124/188/95 149/225/95 123/187/95
f 123/187/95 149/225/95 141/210/95
f 124/226/96 122/227/96 149/228/96
f 149/228/96 122/227/96 150/229/96
f 120/218/97 145/216/97 122/227/97
f 122/227/97 145/216/97 150/229/97
f 146/219/98 140/209/98 141/210/98
f 141/210/98 140/209/98 138/207/98
f 148/224/99 146/219/99 149/225/99
f 149/225/99 146/219/99 141/210/99
f 147/220/100 148/222/100 150/229/100
f 150/229/100 148/222/100 149/228/100
f 143/214/60 147/220/60 145/216/60
f 145/216/60 147/220/60 150/229/60
