# Blender v2.79 (sub 0) OBJ File: 'Sword-v4.blend'
# www.blender.org
mtllib sword.mtl
g blade_edge
v 0.012022 0.081273 -0.911397
v 0.012022 0.081273 -0.070000
v -0.012022 0.081273 -0.911397
v -0.012022 0.081273 -0.070000
v 0.012022 -0.000000 -1.085688
v -0.012022 -0.000000 -1.085688
v 0.012022 -0.081273 -0.911397
v -0.012022 -0.081273 -0.911397
v 0.012022 -0.081273 -0.070000
v -0.012022 -0.081273 -0.070000
v 0.000000 0.100000 -0.070000
v -0.000000 -0.100000 -0.070000
v -0.000000 -0.100000 -0.915548
v -0.000000 -0.000000 -1.129999
v 0.000000 0.100000 -0.915548
vt 0.093826 0.782015
vt 0.001378 0.785834
vt 0.093826 0.999721
vt 0.001379 0.962772
vt 0.093826 0.782015
vt 0.001378 0.785834
vt 0.000338 0.001174
vt 0.093879 0.001174
vt 0.000338 0.776658
vt 0.093888 0.780484
vt 0.000338 0.001174
vt 0.000338 0.776658
vt 0.093888 0.001174
vt 0.093888 0.780484
vt 0.001378 0.785834
vt 0.001379 0.962772
vt 0.000338 0.001174
vt 0.000338 0.776658
vt 0.001378 0.785834
vt 0.000338 0.001174
vt 0.000338 0.776658
vn -0.8415 -0.4896 -0.2283
vn -0.8415 0.4896 -0.2283
vn -0.8415 0.5402 0.0000
vn -0.8415 -0.5402 0.0000
vn 0.8415 -0.4896 -0.2283
vn 0.8415 -0.5402 0.0000
vn 0.8415 0.4896 -0.2283
vn 0.8415 0.5402 0.0000
usemtl None
s off
f 13/1/1 8/2/1 14/3/1
f 14/3/1 8/2/1 6/4/1
f 15/5/2 14/3/2 3/6/2
f 3/6/2 14/3/2 6/4/2
f 4/7/3 11/8/3 3/9/3
f 3/9/3 11/8/3 15/10/3
f 10/11/4 8/12/4 12/13/4
f 12/13/4 8/12/4 13/14/4
f 13/1/5 14/3/5 7/15/5
f 7/15/5 14/3/5 5/16/5
f 9/17/6 12/13/6 7/18/6
f 7/18/6 12/13/6 13/14/6
f 15/5/7 1/19/7 14/3/7
f 14/3/7 1/19/7 5/16/7
f 2/20/8 1/21/8 11/8/8
f 11/8/8 1/21/8 15/10/8
g blade_core
v -0.020000 0.015000 -0.333284
v -0.020000 0.060000 -0.906681
v -0.020000 0.015000 -0.906679
v -0.020000 0.000000 -1.035351
v -0.020000 -0.000000 -0.938849
v -0.020000 -0.015000 -0.906679
v -0.020000 -0.060000 -0.906681
v -0.020000 -0.015000 -0.333284
v -0.020000 -0.060000 -0.288284
v -0.020000 0.060000 -0.288284
v 0.012022 0.081273 -0.911397
v 0.020000 0.060000 -0.906681
v 0.012022 -0.000000 -1.085688
v 0.020000 -0.000000 -1.035351
v 0.012022 -0.081273 -0.911397
v 0.020000 -0.060000 -0.906681
v 0.020000 0.060000 -0.288284
v 0.012022 0.081273 -0.070000
v 0.020000 0.060000 -0.111716
v 0.020000 0.060000 -0.070000
v -0.012022 -0.081273 -0.911397
v -0.012022 -0.000000 -1.085688
v -0.012022 0.081273 -0.911397
v -0.012022 0.081273 -0.070000
v -0.020000 0.060000 -0.111716
v -0.020000 0.060000 -0.070000
v 0.020000 -0.060000 -0.288284
v 0.012022 -0.081273 -0.070000
v 0.020000 -0.060000 -0.111716
v 0.020000 -0.060000 -0.070000
v -0.012022 -0.081273 -0.070000
v -0.020000 -0.060000 -0.111716
v -0.020000 -0.060000 -0.070000
v -0.020000 -0.018284 -0.070000
v -0.020000 0.018284 -0.070000
v -0.007071 0.000000 -0.070000
v 0.007071 0.000000 -0.070000
v 0.020000 -0.018284 -0.070000
v 0.020000 0.018284 -0.070000
v 0.000000 0.000000 -0.080000
v 0.000000 0.040000 -0.120000
v 0.000000 -0.040000 -0.280000
v 0.000000 -0.040000 -0.120000
v -0.010000 -0.000000 -0.334142
v 0.000000 -0.000000 -0.320000
v 0.000000 0.040000 -0.280000
v 0.020000 -0.015000 -0.333284
v 0.020000 -0.015000 -0.906679
v 0.020000 -0.000000 -0.938849
v 0.020000 0.015000 -0.906679
v 0.020000 0.015000 -0.333284
v 0.010000 -0.000000 -0.334142
v -0.010000 -0.000000 -0.903354
v 0.010000 -0.000000 -0.903354
v -0.012022 0.081273 -0.287746
v 0.012022 0.081273 -0.288256
v 0.012022 -0.081273 -0.288591
v -0.012022 -0.081273 -0.288927
vt 0.074229 0.085253
vt 0.786643 0.029403
vt 0.785279 0.087989
vt 0.764248 0.306823
vt 0.765612 0.248237
vt 0.931307 0.328182
vt 0.807356 0.328150
vt 0.764237 0.349455
vt 0.765569 0.408039
vt 0.785268 0.130620
vt 0.786601 0.189205
vt 0.074144 0.132967
vt 0.016671 0.188992
vt 0.017197 0.029226
vt 0.772314 0.436369
vt 0.765570 0.408037
vt 0.998227 0.328196
vt 0.931307 0.328179
vt 0.772370 0.219910
vt 0.765612 0.248234
vt 0.786601 0.189202
vt 0.793346 0.217535
vt 0.016672 0.188991
vt 0.270146 0.408122
vt 0.273159 0.436305
vt 0.002183 0.436179
vt 0.054539 0.408384
vt 0.002028 0.408554
vt 0.772314 0.436372
vt 0.998227 0.328199
vt 0.772370 0.219913
vt 0.793401 0.001078
vt 0.019550 0.001076
vt 0.002836 0.220206
vt 0.270671 0.248357
vt 0.055209 0.248075
vt 0.002626 0.247765
vt 0.793401 0.001076
vt 0.017197 0.029226
vt 0.020599 0.001076
vt 0.002836 0.220206
vt 0.270671 0.248357
vt 0.055209 0.248075
vt 0.002626 0.247765
vt 0.786643 0.029400
vt 0.793345 0.217538
vt 0.020518 0.217175
vt 0.270145 0.408123
vt 0.002183 0.436179
vt 0.054539 0.408384
vt 0.002028 0.408554
vt 0.000589 0.356104
vt 0.000875 0.300090
vt 0.008213 0.328126
vt 0.022858 0.328199
vt 0.069149 0.282314
vt 0.256005 0.374787
vt 0.068475 0.374295
vt 0.324421 0.328229
vt 0.327618 0.352098
vt 0.302530 0.328180
vt 0.256557 0.281502
vt 0.074230 0.085252
vt 0.785279 0.087986
vt 0.764248 0.306820
vt 0.807356 0.328147
vt 0.764237 0.349452
vt 0.785268 0.130618
vt 0.074145 0.132967
vt 0.000589 0.356104
vt 0.000875 0.300090
vt 0.256005 0.374786
vt 0.068475 0.374295
vt 0.008213 0.328126
vt 0.256558 0.281501
vt 0.069149 0.282314
vt 0.324421 0.328228
vt 0.327619 0.352098
vt 0.327703 0.304384
vt 0.758797 0.328137
vt 0.070947 0.109098
vt 0.779828 0.109303
vt 0.327704 0.304383
vt 0.758797 0.328135
vt 0.070948 0.109097
vt 0.779828 0.109300
vt 0.273024 0.220207
vt 0.019685 0.217174
vt 0.274072 0.220207
vt 0.273992 0.436306
vn -1.0000 -0.0000 0.0000
vn 0.9363 0.3182 -0.1484
vn 0.9363 -0.3182 -0.1484
vn 0.9363 0.3511 0.0000
vn -0.9363 -0.3182 -0.1484
vn -0.9363 0.3182 -0.1484
vn -0.9363 0.3511 0.0000
vn 0.9363 -0.3511 0.0000
vn -0.9363 -0.3511 0.0000
vn -0.7071 -0.5000 -0.5000
vn -0.7071 0.7071 0.0000
vn -0.7071 0.5000 -0.5000
vn -0.7071 0.5000 0.5000
vn -0.7071 -0.7071 0.0000
vn 1.0000 0.0000 0.0000
vn 0.7071 -0.7071 0.0000
vn 0.7071 -0.5000 -0.5000
vn 0.7071 0.7071 0.0000
vn 0.7071 0.5000 -0.5000
vn 0.7071 -0.5000 0.5000
vn -0.7071 -0.5000 0.5000
vn -0.8321 -0.5027 0.2344
vn -0.8321 0.5027 0.2344
vn -0.8321 0.5547 0.0000
vn -0.8321 -0.5547 0.0000
vn 0.7071 0.5000 0.5000
vn 0.8321 0.5027 0.2344
vn 0.8321 -0.5027 0.2344
vn 0.8321 -0.5547 0.0000
vn 0.8321 0.5547 0.0000
usemtl None_sword_tex_map.png
s off
f 16/22/9 17/23/9 18/24/9
f 18/25/9 17/26/9 19/27/9
f 18/25/9 19/27/9 20/28/9
f 20/28/9 19/27/9 21/29/9
f 21/29/9 19/27/9 22/30/9
f 21/31/9 22/32/9 23/33/9
f 23/33/9 22/32/9 24/34/9
f 16/22/9 25/35/9 17/23/9
f 26/36/10 27/37/10 28/38/10
f 28/38/10 27/37/10 29/39/10
f 30/40/11 28/38/11 31/41/11
f 31/41/11 28/38/11 29/39/11
f 27/42/12 26/43/12 32/44/12
f 32/45/12 71/46/12 33/47/12
f 32/45/12 33/47/12 34/48/12
f 34/48/12 33/47/12 35/49/12
f 36/50/13 22/30/13 37/51/13
f 37/51/13 22/30/13 19/27/13
f 38/52/14 37/51/14 17/26/14
f 17/26/14 37/51/14 19/27/14
f 38/53/15 25/35/15 70/54/15
f 39/55/15 25/56/15 40/57/15
f 39/55/15 40/57/15 41/58/15
f 38/53/15 17/23/15 25/35/15
f 30/59/16 42/60/16 72/61/16
f 43/62/16 42/63/16 44/64/16
f 43/62/16 44/64/16 45/65/16
f 30/59/16 31/66/16 42/60/16
f 22/32/17 36/67/17 24/34/17
f 24/34/17 36/67/17 73/68/17
f 24/69/17 46/70/17 47/71/17
f 47/71/17 46/70/17 48/72/17
f 49/73/9 47/71/9 48/72/9
f 40/57/9 50/74/9 41/58/9
f 51/75/18 50/74/18 55/76/18
f 55/76/18 50/74/18 56/77/18
f 56/77/18 50/74/18 40/57/18
f 24/69/19 47/71/19 57/78/19
f 57/78/19 47/71/19 58/79/19
f 51/75/20 55/76/20 49/73/20
f 49/73/20 55/76/20 58/79/20
f 49/73/20 58/79/20 47/71/20
f 59/80/21 23/81/21 60/82/21
f 60/82/21 23/81/21 57/78/21
f 57/78/21 23/81/21 24/69/21
f 25/56/22 61/83/22 40/57/22
f 40/57/22 61/83/22 56/77/22
f 62/84/23 31/66/23 63/85/23
f 63/86/23 31/41/23 29/39/23
f 63/86/23 29/39/23 64/87/23
f 64/87/23 29/39/23 65/88/23
f 65/88/23 29/39/23 27/37/23
f 65/89/23 27/42/23 66/90/23
f 66/90/23 27/42/23 32/44/23
f 62/84/23 42/60/23 31/66/23
f 54/91/23 34/48/23 35/49/23
f 44/64/23 53/92/23 45/65/23
f 32/45/24 34/48/24 61/93/24
f 61/93/24 34/48/24 56/94/24
f 52/95/25 55/76/25 54/91/25
f 54/91/25 55/76/25 56/94/25
f 54/91/25 56/94/25 34/48/25
f 42/63/26 57/96/26 44/64/26
f 44/64/26 57/96/26 58/97/26
f 52/95/27 53/92/27 55/76/27
f 55/76/27 53/92/27 58/97/27
f 58/97/27 53/92/27 44/64/27
f 67/98/28 66/99/28 60/82/28
f 60/82/28 66/99/28 61/93/28
f 61/93/28 66/99/28 32/45/28
f 59/80/29 60/82/29 16/100/29
f 16/100/29 60/82/29 61/83/29
f 16/100/29 61/83/29 25/56/29
f 20/28/30 68/101/30 18/25/30
f 21/29/31 68/101/31 20/28/31
f 59/102/32 68/103/32 23/33/32
f 23/33/32 68/103/32 21/31/32
f 59/102/33 16/22/33 68/103/33
f 68/103/33 16/22/33 18/24/33
f 67/98/34 60/82/34 62/104/34
f 62/104/34 60/82/34 57/96/34
f 62/104/34 57/96/34 42/63/34
f 64/87/35 69/105/35 63/86/35
f 65/88/36 69/105/36 64/87/36
f 67/106/37 69/107/37 66/90/37
f 66/90/37 69/107/37 65/89/37
f 67/106/38 62/84/38 69/107/38
f 69/107/38 62/84/38 63/85/38
f 70/108/15 25/56/15 39/55/15
f 71/109/12 32/44/12 26/43/12
f 72/110/16 42/63/16 43/62/16
f 73/111/17 46/70/17 24/69/17
g trace_top
v 0.014992 -0.011202 -0.070000
v 0.000100 -0.011202 -0.091060
v 0.014992 0.011202 -0.070000
v 0.000100 0.011202 -0.091060
v 0.000100 -0.011202 -0.130000
v 0.000100 0.011202 -0.130000
v -0.000100 -0.011202 -0.091060
v -0.014992 -0.011202 -0.070000
v -0.000100 0.011202 -0.091060
v -0.014992 0.011202 -0.070000
v -0.000100 -0.011202 -0.130000
v -0.000100 0.011202 -0.130000
vt 0.515211 0.093660
vt 0.515211 0.056541
vt 0.547452 0.093660
vt 0.547452 0.056541
vt 0.546971 0.055040
vt 0.546971 0.091103
vt 0.515648 0.055040
vt 0.515648 0.091103
vt 0.000000 0.000000
vt 1.000000 0.000000
vt 1.000000 1.000000
vt 0.000000 0.000000
vt 1.000000 1.000000
vt 0.000000 0.000000
vt 1.000000 0.000000
vt 1.000000 1.000000
vt 1.000000 0.000000
vt 1.000000 1.000000
vt 0.000000 0.000000
vt 1.000000 0.000000
vt 1.000000 1.000000
vt 1.000000 0.000000
vt 1.000000 1.000000
vt 0.000000 0.000000
vn 0.8165 0.0000 -0.5774
vn -0.8165 0.0000 -0.5774
vn 0.0000 0.0000 -1.0000
vn 0.0000 1.0000 0.0000
vn 0.0000 -1.0000 0.0000
usemtl None
s off
f 74/112/39 75/113/39 76/114/39
f 76/114/39 75/113/39 77/115/39
f 80/116/40 81/117/40 82/118/40
f 82/118/40 81/117/40 83/119/40
f 79/120/41 78/121/41 85/122/41
f 85/123/41 78/121/41 84/124/41
f 82/125/42 76/126/42 77/127/42
f 82/125/42 77/128/42 85/122/42
f 85/123/42 77/128/42 79/129/42
f 75/130/43 81/131/43 80/132/43
f 75/130/43 80/133/43 78/134/43
f 78/135/43 80/133/43 84/124/43
g trace_bottom
v -0.000100 -0.011202 -0.308939
v -0.000100 -0.011202 -0.260000
v -0.000100 0.011202 -0.308939
v -0.000100 0.011202 -0.260000
v -0.017468 -0.011202 -0.333501
v -0.017468 0.011202 -0.333501
v 0.000100 -0.011202 -0.260000
v 0.000100 -0.011202 -0.308939
v 0.000100 0.011202 -0.260000
v 0.000100 0.011202 -0.308939
v 0.017468 -0.011202 -0.333501
v 0.017468 0.011202 -0.333501
v 0.017468 -0.011202 -0.939999
v -0.017468 -0.011202 -0.939999
v -0.017468 0.011202 -0.939999
v 0.017468 0.011202 -0.939999
vt 0.515011 0.115241
vt 0.515047 0.071360
vt 0.547691 0.115268
vt 0.547728 0.071387
vt 0.547360 0.071430
vt 0.547360 0.115313
vt 0.514678 0.071430
vt 0.514678 0.115313
vt 0.513862 -0.000046
vt 0.515107 -0.000029
vt 0.513802 0.071342
vt -0.224546 0.000000
vt -0.224546 0.000000
vt -0.224546 0.000000
vt -0.224546 0.000000
vt -0.224546 0.000000
vt -0.224546 0.000000
vt -0.224546 0.000000
vt 0.546950 0.999917
vt 0.514270 0.999890
vt 0.547360 1.000002
vt 0.514678 1.000002
vt -0.224546 0.000000
vt -0.224546 0.000000
vt -0.224546 0.000000
vn -0.8165 0.0000 0.5774
vn 0.8165 0.0000 0.5774
vn 0.0000 -1.0000 0.0000
vn 0.0000 0.0000 1.0000
vn -1.0000 0.0000 0.0000
vn 1.0000 0.0000 0.0000
vn 0.0000 1.0000 0.0000
usemtl None
s off
f 90/136/44 86/137/44 91/138/44
f 91/138/44 86/137/44 88/139/44
f 93/140/45 96/141/45 95/142/45
f 95/142/45 96/141/45 97/143/45
f 92/144/46 87/145/46 93/146/46
f 93/146/46 87/145/46 86/137/46
f 93/147/46 86/148/46 98/149/46
f 89/150/47 87/151/47 94/152/47
f 94/152/47 87/151/47 92/153/47
f 91/138/48 100/154/48 90/136/48
f 90/136/48 100/154/48 99/155/48
f 96/141/49 98/156/49 97/143/49
f 97/143/49 98/156/49 101/157/49
f 89/150/50 94/152/50 88/158/50
f 88/158/50 94/152/50 95/159/50
f 88/158/50 95/159/50 100/160/50
g blade_gem
v 0.000000 -0.030000 -0.112763
v 0.020000 -0.015000 -0.119908
v 0.000000 0.000000 -0.078263
v 0.020000 0.000000 -0.102658
v 0.020000 0.000000 -0.297341
v 0.020000 -0.015000 -0.280091
v 0.000000 0.000000 -0.321737
v 0.000000 -0.030000 -0.287237
v 0.020000 0.015000 -0.280091
v 0.000000 0.030000 -0.287237
v 0.020000 0.015000 -0.119908
v 0.000000 0.030000 -0.112763
v -0.020000 0.015000 -0.119908
v -0.020000 0.015000 -0.280091
v -0.020000 0.000000 -0.102658
v -0.020000 -0.015000 -0.119908
v -0.020000 -0.015000 -0.280091
v -0.020000 0.000000 -0.297341
vt 0.986704 0.147433
vt 0.868470 0.203678
vt 0.800150 0.000152
vt 0.797706 0.147259
vt 0.785838 0.861601
vt 0.855565 0.809413
vt 0.783544 0.999664
vt 0.962708 0.869318
vt 0.717882 0.807125
vt 0.608808 0.863438
vt 0.725106 0.201296
vt 0.608806 0.141155
vt 0.868470 0.203678
vt 0.986704 0.147434
vt 0.855563 0.809413
vt 0.962706 0.869319
vt 0.797706 0.147259
vt 0.800150 0.000152
vt 0.725105 0.201296
vt 0.608806 0.141154
vt 0.608805 0.863438
vt 0.717880 0.807125
vt 0.785835 0.861601
vn 0.6249 -0.5891 0.5123
vn 0.6249 -0.5891 -0.5123
vn 0.6000 -0.8000 0.0000
vn 0.6249 0.5891 -0.5123
vn 0.6000 0.8000 0.0000
vn 0.6249 0.5891 0.5123
vn 1.0000 0.0000 0.0000
vn -0.6000 0.8000 0.0000
vn -0.6249 0.5891 0.5123
vn -0.6249 -0.5891 0.5123
vn -0.6249 -0.5891 -0.5123
vn -0.6000 -0.8000 0.0000
vn -0.6249 0.5891 -0.5123
vn -1.0000 0.0000 0.0000
usemtl None
s 1
f 102/161/51 103/162/51 104/163/51
f 104/163/51 103/162/51 105/164/51
f 106/165/52 107/166/52 108/167/52
f 108/167/52 107/166/52 109/168/52
f 109/168/53 107/166/53 102/161/53
f 102/161/53 107/166/53 103/162/53
f 106/165/54 108/167/54 110/169/54
f 110/169/54 108/167/54 111/170/54
f 112/171/55 110/169/55 113/172/55
f 113/172/55 110/169/55 111/170/55
f 105/164/56 112/171/56 104/163/56
f 104/163/56 112/171/56 113/172/56
f 107/166/57 106/165/57 103/162/57
f 103/162/57 106/165/57 105/164/57
f 105/164/57 106/165/57 112/171/57
f 112/171/57 106/165/57 110/169/57
f 114/173/58 113/174/58 115/175/58
f 115/175/58 113/174/58 111/176/58
f 116/177/59 104/178/59 114/173/59
f 114/173/59 104/178/59 113/174/59
f 116/177/60 117/179/60 104/178/60
f 104/178/60 117/179/60 102/180/60
f 109/181/61 118/182/61 108/167/61
f 108/167/61 118/182/61 119/183/61
f 117/179/62 118/182/62 102/180/62
f 102/180/62 118/182/62 109/181/62
f 111/176/63 108/167/63 115/175/63
f 115/175/63 108/167/63 119/183/63
f 118/182/64 117/179/64 119/183/64
f 119/183/64 117/179/64 116/177/64
f 119/183/64 116/177/64 114/173/64
f 114/173/64 115/175/64 119/183/64
g handle_bauble
v 0.050000 0.000000 0.362426
v 0.020000 0.000000 0.461421
v 0.050000 -0.042426 0.320000
v 0.020000 -0.141421 0.320000
v 0.050000 0.042426 0.320000
v 0.020000 0.141421 0.320000
v 0.050000 0.000000 0.277573
v 0.020000 0.000000 0.178578
v -0.020000 0.000000 0.178578
v -0.020000 -0.141421 0.320000
v -0.020000 0.000000 0.461421
v -0.050000 0.000000 0.362426
v -0.050000 -0.042426 0.320000
v -0.050000 0.000000 0.277573
v -0.050000 0.042426 0.320000
v -0.020000 0.141421 0.320000
vt 0.154442 0.778356
vt 0.069471 0.691949
vt 0.152513 0.846715
vt 0.065443 0.932339
vt 0.222823 0.777573
vt 0.309894 0.691949
vt 0.220895 0.845932
vt 0.305867 0.932339
vt 0.307020 0.994438
vt 0.067042 0.994438
vt 0.307020 0.946442
vt 0.067042 0.946442
vt 0.006768 0.933381
vt 0.006768 0.693403
vt 0.054763 0.933381
vt 0.054763 0.693403
vt 0.154719 0.779094
vt 0.153934 0.847615
vt 0.068135 0.693949
vt 0.068134 0.934864
vt 0.222432 0.845683
vt 0.309016 0.930828
vt 0.223217 0.777161
vt 0.309016 0.689912
vt 0.068964 0.631312
vt 0.308943 0.631312
vt 0.068964 0.679308
vt 0.308943 0.679308
vt 0.365795 0.691960
vt 0.365795 0.931939
vt 0.317799 0.691960
vt 0.317799 0.931939
vn 0.9191 -0.2785 0.2785
vn 0.9191 0.2785 0.2785
vn 0.9191 0.2785 -0.2785
vn 0.9191 -0.2785 -0.2785
vn 0.0000 -0.7071 -0.7071
vn 0.0000 -0.7071 0.7071
vn 1.0000 0.0000 0.0000
vn -0.9191 -0.2785 0.2785
vn -0.9191 -0.2785 -0.2785
vn -0.9191 0.2785 -0.2785
vn -0.9191 0.2785 0.2785
vn 0.0000 0.7071 0.7071
vn -1.0000 0.0000 0.0000
vn 0.0000 0.7071 -0.7071
usemtl None_sword.png.001
s 1
f 120/184/65 121/185/65 122/186/65
f 122/186/65 121/185/65 123/187/65
f 120/184/66 124/188/66 121/185/66
f 121/185/66 124/188/66 125/189/66
f 126/190/67 127/191/67 124/188/67
f 124/188/67 127/191/67 125/189/67
f 123/187/68 127/191/68 122/186/68
f 122/186/68 127/191/68 126/190/68
f 127/192/69 123/193/69 128/194/69
f 128/194/69 123/193/69 129/195/69
f 123/196/70 121/197/70 129/198/70
f 129/198/70 121/197/70 130/199/70
f 120/184/71 122/186/71 124/188/71
f 124/188/71 122/186/71 126/190/71
f 131/200/72 132/201/72 130/202/72
f 130/202/72 132/201/72 129/203/72
f 133/204/73 128/205/73 132/201/73
f 132/201/73 128/205/73 129/203/73
f 133/204/74 134/206/74 128/205/74
f 128/205/74 134/206/74 135/207/74
f 135/207/75 134/206/75 130/202/75
f 130/202/75 134/206/75 131/200/75
f 121/208/76 125/209/76 130/210/76
f 130/210/76 125/209/76 135/211/76
f 131/200/77 134/206/77 132/201/77
f 132/201/77 134/206/77 133/204/77
f 125/212/78 127/213/78 135/214/78
f 135/214/78 127/213/78 128/215/78
g handle
v 0.020000 0.070000 0.320000
v 0.030000 0.025000 0.320000
v 0.020000 0.070000 -0.010000
v 0.030000 0.025000 -0.010000
v -0.020000 -0.070000 0.320000
v -0.030000 -0.025000 0.320000
v -0.020000 -0.070000 -0.010000
v -0.030000 -0.025000 -0.010000
v 0.030000 -0.025000 0.320000
v 0.020000 -0.070000 0.320000
v 0.030000 -0.025000 -0.010000
v 0.020000 -0.070000 -0.010000
v -0.030000 0.025000 0.320000
v -0.020000 0.070000 0.320000
v -0.030000 0.025000 -0.010000
v -0.020000 0.070000 -0.010000
vt 0.636705 0.664468
vt 0.682795 0.664468
vt 0.636705 0.994419
vt 0.682795 0.994419
vt 0.448957 0.664358
vt 0.495048 0.664358
vt 0.448957 0.994309
vt 0.495048 0.994309
vt 0.732788 0.664468
vt 0.778879 0.664468
vt 0.732788 0.994419
vt 0.778879 0.994419
vt 0.545041 0.664358
vt 0.591132 0.664358
vt 0.545041 0.994309
vt 0.591131 0.994309
vt 0.408963 0.664358
vt 0.408963 0.994309
vt 0.596710 0.664468
vt 0.596711 0.994419
vn 0.9762 0.2169 0.0000
vn -0.9762 -0.2169 0.0000
vn 0.9762 -0.2169 0.0000
vn -0.9762 0.2169 0.0000
vn 0.0000 -1.0000 0.0000
vn -1.0000 0.0000 0.0000
vn 0.0000 1.0000 0.0000
vn 1.0000 0.0000 0.0000
usemtl None_sword.png.001
s 1
f 136/216/79 137/217/79 138/218/79
f 138/218/79 137/217/79 139/219/79
f 140/220/80 141/221/80 142/222/80
f 142/222/80 141/221/80 143/223/80
f 144/224/81 145/225/81 146/226/81
f 146/226/81 145/225/81 147/227/81
f 148/228/82 149/229/82 150/230/82
f 150/230/82 149/229/82 151/231/82
f 145/232/83 140/220/83 147/233/83
f 147/233/83 140/220/83 142/222/83
f 141/221/84 148/228/84 143/223/84
f 143/223/84 148/228/84 150/230/84
f 149/234/85 136/216/85 151/235/85
f 151/235/85 136/216/85 138/218/85
f 137/217/86 144/224/86 139/219/86
f 139/219/86 144/224/86 146/226/86
g hilt
v 0.050000 -0.040000 0.000000
v -0.050000 -0.040000 0.000000
v 0.010000 -0.230000 -0.020000
v -0.010000 -0.230000 -0.020000
v 0.010000 -0.230000 -0.060000
v -0.010000 -0.230000 -0.060000
v -0.050000 -0.040000 -0.080000
v -0.010000 0.230000 -0.020000
v -0.050000 0.040000 0.000000
v 0.010000 0.230000 -0.020000
v 0.050000 0.040000 0.000000
v -0.010000 0.230000 -0.060000
v 0.010000 0.230000 -0.060000
v 0.050000 0.040000 -0.080000
v -0.050000 0.040000 -0.080000
v 0.050000 -0.040000 -0.080000
vt 0.276838 0.592906
vt 0.276838 0.470400
vt 0.042790 0.543904
vt 0.042790 0.519402
vt 0.015637 0.507732
vt 0.040070 0.507732
vt 0.015637 0.556597
vt 0.040070 0.556597
vt 0.277265 0.483300
vt 0.277265 0.581030
vt 0.608892 0.519402
vt 0.374844 0.470400
vt 0.608892 0.543904
vt 0.374844 0.592906
vt 0.631265 0.554649
vt 0.607251 0.554649
vt 0.631265 0.506621
vt 0.607251 0.506621
vt 0.374119 0.578663
vt 0.374119 0.482607
vt 0.376052 0.469794
vt 0.376052 0.593171
vt 0.611763 0.519145
vt 0.611763 0.543820
vt 0.612191 0.507733
vt 0.612191 0.556598
vt 0.374995 0.483300
vt 0.374995 0.581030
vt 0.277351 0.469794
vt 0.277351 0.593171
vt 0.041641 0.543820
vt 0.041641 0.519145
vt 0.044931 0.554648
vt 0.044931 0.506621
vt 0.278063 0.578663
vt 0.278063 0.482607
vn 0.0000 -0.1047 0.9945
vn 0.0000 -1.0000 0.0000
vn -0.9785 -0.2060 0.0000
vn 0.0000 0.1047 0.9945
vn 0.0000 1.0000 0.0000
vn 0.9785 0.2060 0.0000
vn 0.0000 0.1047 -0.9945
vn -0.9785 0.2060 0.0000
vn 0.0000 0.0000 -1.0000
vn 0.0000 -0.1047 -0.9945
vn -1.0000 0.0000 0.0000
vn 0.9785 -0.2060 0.0000
vn 1.0000 0.0000 0.0000
vn 0.0000 0.0000 1.0000
usemtl None_sword.png.001
s 1
f 152/236/87 153/237/87 154/238/87
f 154/238/87 153/237/87 155/239/87
f 154/240/88 155/241/88 156/242/88
f 156/242/88 155/241/88 157/243/88
f 155/241/89 153/244/89 157/243/89
f 157/243/89 153/244/89 158/245/89
f 159/246/90 160/247/90 161/248/90
f 161/248/90 160/247/90 162/249/90
f 159/250/91 161/251/91 163/252/91
f 163/252/91 161/251/91 164/253/91
f 161/251/92 162/254/92 164/253/92
f 164/253/92 162/254/92 165/255/92
f 165/256/93 166/257/93 164/258/93
f 164/258/93 166/257/93 163/259/93
f 159/260/94 163/261/94 160/262/94
f 160/262/94 163/261/94 166/263/94
f 165/256/95 167/264/95 166/257/95
f 166/257/95 167/264/95 158/265/95
f 157/266/96 158/265/96 156/267/96
f 156/267/96 158/265/96 167/264/96
f 153/244/97 160/262/97 158/245/97
f 158/245/97 160/262/97 166/263/97
f 154/268/98 156/269/98 152/270/98
f 152/270/98 156/269/98 167/271/98
f 162/254/99 152/270/99 165/255/99
f 165/255/99 152/270/99 167/271/99
f 153/237/100 152/236/100 160/247/100
f 160/247/100 152/236/100 162/249/100
