# Blender v2.77 (sub 0) OBJ File: ''
# www.blender.org

g Base
v -0.300001 0.095370 0.300001
v -0.300001 0.095370 -0.299999
v -0.300001 -0.004630 -0.299999
v 0.299999 0.095370 -0.299999
v 0.299999 -0.004630 -0.299999
v 0.299999 0.095370 0.300001
v 0.299999 -0.004630 0.300001
v -0.300001 -0.004630 0.300001
v -0.157049 -0.004630 -0.157047
v -0.157182 -0.004630 0.157182
v 0.156990 -0.004630 0.156992
v 0.156811 -0.004630 -0.156811
v -0.142641 0.008869 -0.142638
v 0.142730 0.008581 -0.142730
v 0.142583 0.008744 0.142585
v -0.142608 0.008914 0.142608
v -0.114354 0.005370 -0.114352
v 0.114176 0.005370 -0.114176
v -0.000001 0.005370 0.000001
v 0.113899 0.005370 0.113901
v -0.114138 0.005370 0.114138
v -0.128488 0.012128 -0.128486
v 0.128633 0.011807 -0.128633
v 0.128220 0.012076 0.128223
v -0.128359 0.012154 0.128359
vt 0.3281 0.0000
vt 0.6562 0.0000
vt 0.6562 0.0703
vt 0.3281 0.0000
vt 0.6562 0.0000
vt 0.6562 0.0703
vt 0.3281 0.0000
vt 0.6562 0.0000
vt 0.6562 0.0703
vt 0.3281 0.0000
vt 0.6562 0.0000
vt 0.6562 0.0703
vt 0.0001 0.0001
vt 0.3281 0.0000
vt 0.0783 0.0783
vt 0.0001 0.0001
vt 0.0000 0.3281
vt 0.0000 0.3281
vt 0.0781 0.2500
vt 0.3281 0.3281
vt 0.2499 0.2499
vt 0.2498 0.0783
vt 0.0861 0.0861
vt 0.2421 0.0860
vt 0.2421 0.2421
vt 0.0861 0.2421
vt 0.1016 0.1016
vt 0.2265 0.1017
vt 0.1641 0.1641
vt 0.2264 0.2264
vt 0.1017 0.2265
vt 0.0939 0.0939
vt 0.2344 0.0937
vt 0.2342 0.2342
vt 0.0939 0.2343
vt 0.3281 0.0703
vt 0.3281 0.0703
vt 0.3281 0.0703
vt 0.3281 0.0703
vt 0.3281 0.3281
vn -1.0000 -0.0000 0.0000
vn 0.0000 0.0000 -1.0000
vn 1.0000 -0.0000 0.0000
vn 0.0000 -0.0000 1.0000
vn 0.0000 -1.0000 -0.0000
vn 0.0000 1.0000 0.0000
vn -0.0005 -0.7295 0.6840
vn -0.6840 -0.7295 0.0004
vn -0.0004 -0.7331 -0.6801
vn 0.6809 -0.7324 0.0003
vn -0.0014 -0.9027 -0.4302
vn 0.4081 -0.9129 0.0016
vn -0.0001 -0.9056 0.4241
vn -0.4303 -0.9027 0.0003
vn 0.2218 -0.9751 0.0001
vn -0.0009 -0.9743 0.2253
vn -0.2227 -0.9749 0.0004
vn -0.0006 -0.9743 -0.2254
vn -0.0005 -0.7323 -0.6810
vn -0.0004 -0.9750 -0.2221
vn 0.0004 -0.9024 0.4309
vn 0.6837 -0.7298 0.0000
vn 0.2244 -0.9745 -0.0000
vn -0.4317 -0.9020 0.0004
vn -0.0005 -0.7295 0.6839
vn -0.0011 -0.9750 0.2220
vn 0.0003 -0.9137 -0.4065
vn -0.6804 -0.7329 0.0001
vn -0.2266 -0.9740 0.0007
vn 0.4237 -0.9058 0.0005
s off
f 1/1/1 2/2/1 3/3/1
f 2/4/2 4/5/2 5/6/2
f 4/7/3 6/8/3 7/9/3
f 6/10/4 1/11/4 8/12/4
f 3/13/5 5/14/5 9/15/5
f 1/16/6 6/10/6 2/17/6
f 8/18/5 3/13/5 10/19/5
f 7/20/5 8/18/5 11/21/5
f 5/14/5 7/20/5 12/22/5
f 9/15/7 12/22/7 13/23/7
f 12/22/8 11/21/8 14/24/8
f 11/21/9 10/19/9 15/25/9
f 10/19/10 9/15/10 16/26/10
f 17/27/5 18/28/5 19/29/5
f 18/28/5 20/30/5 19/29/5
f 20/30/5 21/31/5 19/29/5
f 21/31/5 17/27/5 19/29/5
f 22/32/11 23/33/11 17/27/11
f 23/33/12 24/34/12 18/28/12
f 24/34/13 25/35/13 20/30/13
f 25/35/14 22/32/14 21/31/14
f 16/26/15 13/23/15 25/35/15
f 13/23/16 14/24/16 22/32/16
f 14/24/17 15/25/17 23/33/17
f 15/25/18 16/26/18 24/34/18
f 8/36/1 1/1/1 3/3/1
f 3/37/2 2/4/2 5/6/2
f 5/38/3 4/7/3 7/9/3
f 7/39/4 6/10/4 8/12/4
f 3/13/5 9/15/5 10/19/5
f 5/14/5 12/22/5 9/15/5
f 7/20/5 11/21/5 12/22/5
f 8/18/5 10/19/5 11/21/5
f 10/19/19 16/26/19 15/25/19
f 16/26/20 25/35/20 24/34/20
f 25/35/21 21/31/21 20/30/21
f 9/15/22 13/23/22 16/26/22
f 13/23/23 22/32/23 25/35/23
f 22/32/24 17/27/24 21/31/24
f 12/22/25 14/24/25 13/23/25
f 14/24/26 23/33/26 22/32/26
f 23/33/27 18/28/27 17/27/27
f 11/21/28 15/25/28 14/24/28
f 15/25/29 24/34/29 23/33/29
f 24/34/30 20/30/30 18/28/30
f 6/10/6 4/40/6 2/17/6

g Crystal
v 0.000000 0.839936 0.000000
v 0.000000 0.439936 -0.250000
v -0.216506 0.439936 -0.125000
v -0.216506 0.439936 0.125000
v 0.000000 0.439936 0.250000
v 0.216506 0.439936 0.125000
v 0.216506 0.439936 -0.125000
v 0.216506 0.039936 -0.125000
v 0.000000 0.039936 -0.250000
v 0.216506 0.039936 0.125000
v 0.000000 0.039936 0.250000
v -0.216506 0.039936 0.125000
v -0.216506 0.039936 -0.125000
v 0.000000 0.039936 0.000000
vt 0.5938 0.8750
vt 0.3984 0.3281
vt 0.7969 0.3281
vt 0.4062 0.3281
vt 0.7969 0.3281
vt 0.3984 0.3281
vt 0.7969 0.3281
vt 0.3984 0.3281
vt 0.7969 0.3281
vt 0.3984 0.3281
vt 0.7969 0.3281
vt 0.3984 0.3281
vt 0.7891 0.3281
vt 0.0000 1.0000
vt 0.0000 0.6562
vt 0.3984 0.6562
vt 0.0001 0.9999
vt 0.0000 0.6562
vt 0.3984 0.6562
vt 0.0001 0.9999
vt 0.0000 0.6562
vt 0.3984 0.6562
vt 0.0001 0.9999
vt 0.0000 0.6562
vt 0.3984 0.6562
vt 0.0001 0.9999
vt 0.0000 0.6562
vt 0.3984 0.6562
vt 0.0001 0.9999
vt 0.0000 0.6562
vt 0.3984 0.6562
vt 0.7891 0.3281
vt 0.3984 0.3281
vt 0.5938 0.8750
vt 0.7969 0.3281
vt 0.3984 0.3281
vt 0.7969 0.3281
vt 0.3984 0.3281
vt 0.7969 0.3281
vt 0.3984 0.3281
vt 0.7969 0.3281
vt 0.3984 0.3281
vt 0.7969 0.3281
vt 0.3984 0.3281
vt 0.3984 1.0000
vt 0.3984 1.0000
vt 0.3984 1.0000
vt 0.3984 1.0000
vt 0.3984 1.0000
vt 0.3984 1.0000
vn -0.4397 0.4760 -0.7616
vn -0.8794 0.4760 0.0000
vn -0.4397 0.4760 0.7616
vn 0.4397 0.4760 0.7616
vn 0.8794 0.4760 0.0000
vn 0.4397 0.4760 -0.7616
vn 0.5000 0.0000 -0.8660
vn 1.0000 0.0000 0.0000
vn 0.5000 -0.0000 0.8660
vn -0.5000 -0.0000 0.8660
vn -1.0000 0.0000 0.0000
vn -0.5000 0.0000 -0.8660
vn -0.0000 -1.0000 -0.0000
s off
f 26/41/31 27/42/31 28/43/31
f 26/41/32 28/44/32 29/45/32
f 26/41/33 29/46/33 30/47/33
f 26/41/34 30/48/34 31/49/34
f 26/41/35 31/50/35 32/51/35
f 26/41/36 32/52/36 27/53/36
f 32/54/37 33/55/37 34/56/37
f 31/57/38 35/58/38 33/59/38
f 30/60/39 36/61/39 35/62/39
f 29/63/40 37/64/40 36/65/40
f 28/66/41 38/67/41 37/68/41
f 27/69/42 34/70/42 38/71/42
f 34/72/43 33/73/43 39/74/43
f 33/75/43 35/76/43 39/74/43
f 35/77/43 36/78/43 39/74/43
f 36/79/43 37/80/43 39/74/43
f 37/81/43 38/82/43 39/74/43
f 38/83/43 34/84/43 39/74/43
f 30/85/40 29/63/40 36/65/40
f 31/86/39 30/60/39 35/62/39
f 32/87/38 31/57/38 33/59/38
f 27/88/37 32/54/37 34/56/37
f 28/89/42 27/69/42 38/71/42
f 29/90/41 28/66/41 37/68/41
