# Blender v2.82 (sub 7) OBJ File: ''
# www.blender.org
mtllib generator_fan.mtl
o hub
v 6.750000 -1.000000 -4.000000
v 6.750000 -2.000000 -4.000000
v 6.750000 -1.000000 -5.000000
v 6.750000 -2.000000 -5.000000
v 4.500000 -1.000000 -5.000000
v 4.500000 -1.000000 -4.000000
v 4.500000 -2.000000 -4.000000
v 4.500000 -2.000000 -5.000000
vt 0.000000 0.156250
vt 0.070312 0.156250
vt 0.070312 0.187500
vt 0.000000 0.187500
vt 0.000000 0.093750
vt 0.070312 0.093750
vt 0.070312 0.125000
vt 0.000000 0.125000
vt 0.000000 0.093750
vt 0.070312 0.093750
vt 0.070312 0.125000
vt 0.000000 0.125000
vt 0.000000 0.125000
vt 0.070312 0.125000
vt 0.070312 0.156250
vt 0.000000 0.156250
vt 0.000000 0.031250
vt 0.031250 0.031250
vt 0.031250 0.062500
vt 0.000000 0.062500
vn 0.0000 1.0000 0.0000
vn 0.0000 -1.0000 0.0000
vn 0.0000 0.0000 1.0000
vn 0.0000 0.0000 -1.0000
vn 1.0000 0.0000 0.0000
usemtl 2
s 1
f 6/1/1 1/2/1 3/3/1 5/4/1
f 8/5/2 4/6/2 2/7/2 7/8/2
f 7/9/3 2/10/3 1/11/3 6/12/3
f 4/13/4 8/14/4 5/15/4 3/16/4
f 2/17/5 4/18/5 3/19/5 1/20/5
o rotor1
v 6.750000 1.000000 -4.250000
v 6.750000 -1.000000 -4.250000
v 6.750000 1.000000 -4.750000
v 6.750000 -1.000000 -4.750000
v 4.500000 1.000000 -4.750000
v 4.500000 1.000000 -4.250000
v 4.500000 -1.000000 -4.250000
v 4.500000 -1.000000 -4.750000
vt 0.093750 0.109375
vt 0.164062 0.109375
vt 0.164062 0.125000
vt 0.093750 0.125000
vt 0.093750 0.125000
vt 0.164062 0.125000
vt 0.164062 0.187500
vt 0.093750 0.187500
vt 0.093750 0.000000
vt 0.164062 0.000000
vt 0.164062 0.062500
vt 0.093750 0.062500
vt 0.187500 0.000000
vt 0.203125 0.000000
vt 0.203125 0.062500
vt 0.187500 0.062500
vn 0.0000 1.0000 0.0000
vn 0.0000 0.0000 1.0000
vn 0.0000 0.0000 -1.0000
vn 1.0000 0.0000 0.0000
usemtl 2
s 1
f 14/21/6 9/22/6 11/23/6 13/24/6
f 15/25/7 10/26/7 9/27/7 14/28/7
f 12/29/8 16/30/8 13/31/8 11/32/8
f 10/33/9 12/34/9 11/35/9 9/36/9
o rotor2
v 6.750000 -2.000000 -4.250000
v 6.750000 -4.000000 -4.250000
v 6.750000 -2.000000 -4.750000
v 6.750000 -4.000000 -4.750000
v 4.500000 -4.000000 -4.250000
v 4.500000 -4.000000 -4.750000
v 4.500000 -2.000000 -4.250000
v 4.500000 -2.000000 -4.750000
vt 0.093750 0.078125
vt 0.164062 0.078125
vt 0.164062 0.093750
vt 0.093750 0.093750
vt 0.093750 0.000000
vt 0.164062 0.000000
vt 0.164062 0.062500
vt 0.093750 0.062500
vt 0.093750 0.125000
vt 0.164062 0.125000
vt 0.164062 0.187500
vt 0.093750 0.187500
vt 0.187500 0.000000
vt 0.203125 0.000000
vt 0.203125 0.062500
vt 0.187500 0.062500
vn 0.0000 -1.0000 0.0000
vn 0.0000 0.0000 1.0000
vn 0.0000 0.0000 -1.0000
vn 1.0000 0.0000 0.0000
usemtl 2
s 1
f 22/37/10 20/38/10 18/39/10 21/40/10
f 21/41/11 18/42/11 17/43/11 23/44/11
f 20/45/12 22/46/12 24/47/12 19/48/12
f 18/49/13 20/50/13 19/51/13 17/52/13
o rotor3
v 6.750000 -1.250000 -5.000000
v 6.750000 -1.750000 -5.000000
v 6.750000 -1.250000 -7.000000
v 6.750000 -1.750000 -7.000000
v 4.500000 -1.250000 -7.000000
v 4.500000 -1.250000 -5.000000
v 4.500000 -1.750000 -5.000000
v 4.500000 -1.750000 -7.000000
vt 0.093750 0.125000
vt 0.164062 0.125000
vt 0.164062 0.187500
vt 0.093750 0.187500
vt 0.093750 0.000000
vt 0.164062 0.000000
vt 0.164062 0.062500
vt 0.093750 0.062500
vt 0.093750 0.078125
vt 0.164062 0.078125
vt 0.164062 0.093750
vt 0.093750 0.093750
vt 0.203125 0.000000
vt 0.203125 0.062500
vt 0.187500 0.062500
vt 0.187500 0.000000
vn 0.0000 1.0000 0.0000
vn 0.0000 -1.0000 -0.0000
vn 0.0000 0.0000 -1.0000
vn 1.0000 0.0000 0.0000
usemtl 2
s 1
f 30/53/14 25/54/14 27/55/14 29/56/14
f 32/57/15 28/58/15 26/59/15 31/60/15
f 28/61/16 32/62/16 29/63/16 27/64/16
f 26/65/17 28/66/17 27/67/17 25/68/17
o rotor4
v 6.750000 -1.250000 -2.000000
v 6.750000 -1.750000 -2.000000
v 6.750000 -1.250000 -4.000000
v 6.750000 -1.750000 -4.000000
v 4.500000 -1.250000 -4.000000
v 4.500000 -1.250000 -2.000000
v 4.500000 -1.750000 -2.000000
v 4.500000 -1.750000 -4.000000
vt 0.093750 0.000000
vt 0.164062 0.000000
vt 0.164062 0.062500
vt 0.093750 0.062500
vt 0.093750 0.125000
vt 0.164062 0.125000
vt 0.164062 0.187500
vt 0.093750 0.187500
vt 0.093750 0.078125
vt 0.164062 0.078125
vt 0.164062 0.093750
vt 0.093750 0.093750
vt 0.203125 0.000000
vt 0.203125 0.062500
vt 0.187500 0.062500
vt 0.187500 0.000000
vn 0.0000 1.0000 0.0000
vn 0.0000 -1.0000 0.0000
vn 0.0000 0.0000 1.0000
vn 1.0000 0.0000 0.0000
usemtl 2
s 1
f 38/69/18 33/70/18 35/71/18 37/72/18
f 40/73/19 36/74/19 34/75/19 39/76/19
f 39/77/20 34/78/20 33/79/20 38/80/20
f 34/81/21 36/82/21 35/83/21 33/84/21
