# Blender v2.80 (sub 75) OBJ File: ''
# www.blender.org
mtllib grinder_sword.mtl
o grinder_10
v -0.000000 5.303301 0.250000
v 1.060660 4.242640 0.250000
v -0.000000 5.303301 -0.250000
v 1.060660 4.242640 -0.250000
v -1.060660 4.242640 -0.250000
v -0.000000 3.181981 -0.250000
v -1.060660 4.242640 0.250000
v -0.000000 3.181981 0.250000
vt 0.000000 0.593750
vt 0.093750 0.593750
vt 0.000000 0.562500
vt 0.093750 0.562500
vt 0.000000 0.500000
vt 0.093750 0.500000
vt 0.000000 0.531250
vt 0.093750 0.531250
vt 0.031250 0.500000
vt 0.000000 0.593750
vt 0.031250 0.593750
vt 0.062500 0.500000
vt 0.062500 0.593750
vt 0.093750 0.593750
vt 0.000000 0.500000
vt 0.093750 0.500000
vn 0.7071 0.7071 0.0000
vn -0.7071 -0.7071 0.0000
vn -0.7071 0.7071 0.0000
vn 0.7071 -0.7071 0.0000
vn 0.0000 -0.0000 1.0000
vn 0.0000 0.0000 -1.0000
usemtl 0
s 1
f 1/1/1 2/2/1 3/3/1
f 2/2/1 4/4/1 3/3/1
f 5/5/2 6/6/2 7/7/2
f 6/6/2 8/8/2 7/7/2
f 5/5/3 7/9/3 3/10/3
f 7/9/3 1/11/3 3/10/3
f 8/12/4 6/6/4 2/13/4
f 6/6/4 4/14/4 2/13/4
f 7/15/5 8/16/5 1/1/5
f 8/16/5 2/2/5 1/1/5
f 3/10/6 4/14/6 5/5/6
f 4/14/6 6/6/6 5/5/6
o grinder_11
v 0.707107 3.889087 0.250000
v 1.060660 3.535534 0.250000
v 0.707107 3.889087 -0.250000
v 1.060660 3.535534 -0.250000
v -1.060660 2.121320 -0.250000
v -0.707107 1.767767 -0.250000
v -1.060660 2.121320 0.250000
v -0.707107 1.767767 0.250000
vt 0.093750 0.562500
vt 0.125000 0.562500
vt 0.093750 0.531250
vt 0.125000 0.531250
vt 0.093750 0.406250
vt 0.125000 0.406250
vt 0.093750 0.437500
vt 0.125000 0.437500
vt 0.125000 0.406250
vt 0.093750 0.562500
vt 0.125000 0.562500
vt 0.093750 0.406250
vt 0.093750 0.562500
vt 0.125000 0.562500
vt 0.093750 0.406250
vt 0.125000 0.406250
vn 0.7071 0.7071 0.0000
vn -0.7071 -0.7071 0.0000
vn -0.7071 0.7071 0.0000
vn 0.7071 -0.7071 0.0000
vn 0.0000 -0.0000 1.0000
vn 0.0000 0.0000 -1.0000
usemtl 0
s 1
f 9/17/7 10/18/7 11/19/7
f 10/18/7 12/20/7 11/19/7
f 13/21/8 14/22/8 15/23/8
f 14/22/8 16/24/8 15/23/8
f 13/21/9 15/25/9 11/26/9
f 15/25/9 9/27/9 11/26/9
f 16/28/10 14/22/10 10/29/10
f 14/22/10 12/30/10 10/29/10
f 15/31/11 16/32/11 9/17/11
f 16/32/11 10/18/11 9/17/11
f 11/26/12 12/30/12 13/21/12
f 12/30/12 14/22/12 13/21/12
o grinder_12
v 0.707107 3.181981 0.250000
v 1.060660 2.828427 0.250000
v 0.707107 3.181981 -0.250000
v 1.060660 2.828427 -0.250000
v -1.060660 1.414214 -0.250000
v -0.707107 1.060660 -0.250000
v -1.060660 1.414214 0.250000
v -0.707107 1.060660 0.250000
vt 0.125000 0.531250
vt 0.156250 0.531250
vt 0.125000 0.500000
vt 0.156250 0.500000
vt 0.125000 0.375000
vt 0.156250 0.375000
vt 0.125000 0.406250
vt 0.156250 0.406250
vt 0.156250 0.375000
vt 0.125000 0.531250
vt 0.156250 0.531250
vt 0.125000 0.375000
vt 0.125000 0.531250
vt 0.156250 0.531250
vt 0.125000 0.375000
vt 0.156250 0.375000
vn 0.7071 0.7071 0.0000
vn -0.7071 -0.7071 0.0000
vn -0.7071 0.7071 0.0000
vn 0.7071 -0.7071 0.0000
vn 0.0000 -0.0000 1.0000
vn 0.0000 0.0000 -1.0000
usemtl 0
s 1
f 17/33/13 18/34/13 19/35/13
f 18/34/13 20/36/13 19/35/13
f 21/37/14 22/38/14 23/39/14
f 22/38/14 24/40/14 23/39/14
f 21/37/15 23/41/15 19/42/15
f 23/41/15 17/43/15 19/42/15
f 24/44/16 22/38/16 18/45/16
f 22/38/16 20/46/16 18/45/16
f 23/47/17 24/48/17 17/33/17
f 24/48/17 18/34/17 17/33/17
f 19/42/18 20/46/18 21/37/18
f 20/46/18 22/38/18 21/37/18
o grinder_13
v -1.060660 3.535534 -0.250000
v -0.353553 2.828427 -0.250000
v -1.060660 3.535534 0.250000
v -0.353553 2.828427 0.250000
v -0.707107 3.889087 -0.250000
v -0.707107 3.889087 0.250000
v -0.000000 3.181981 0.250000
v -0.000000 3.181981 -0.250000
vt 0.031250 0.468750
vt 0.093750 0.468750
vt 0.031250 0.500000
vt 0.093750 0.500000
vt 0.062500 0.468750
vt 0.031250 0.500000
vt 0.062500 0.500000
vt 0.031250 0.468750
vt 0.093750 0.468750
vt 0.031250 0.500000
vt 0.093750 0.500000
vt 0.093750 0.500000
vn -0.7071 -0.7071 0.0000
vn -0.7071 0.7071 0.0000
vn 0.0000 -0.0000 1.0000
vn 0.0000 0.0000 -1.0000
usemtl 0
s 1
f 25/49/19 26/50/19 27/51/19
f 26/50/19 28/52/19 27/51/19
f 25/49/20 27/53/20 29/54/20
f 27/53/20 30/55/20 29/54/20
f 27/56/21 28/57/21 30/58/21
f 28/57/21 31/59/21 30/58/21
f 29/54/22 32/60/22 25/49/22
f 32/60/22 26/50/22 25/49/22
o grinder_14
v 0.707107 2.474874 0.250000
v 1.060660 2.121320 0.250000
v 0.707107 2.474874 -0.250000
v 1.060660 2.121320 -0.250000
v -1.060660 0.707107 -0.250000
v -0.707107 0.353553 -0.250000
v -1.060660 0.707107 0.250000
v -0.707107 0.353553 0.250000
vt 0.156250 0.500000
vt 0.187500 0.500000
vt 0.156250 0.468750
vt 0.187500 0.468750
vt 0.156250 0.343750
vt 0.187500 0.343750
vt 0.156250 0.375000
vt 0.187500 0.375000
vt 0.187500 0.343750
vt 0.156250 0.500000
vt 0.187500 0.500000
vt 0.156250 0.343750
vt 0.156250 0.500000
vt 0.187500 0.500000
vt 0.156250 0.343750
vt 0.187500 0.343750
vn 0.7071 0.7071 0.0000
vn -0.7071 -0.7071 0.0000
vn -0.7071 0.7071 0.0000
vn 0.7071 -0.7071 0.0000
vn -0.0000 -0.0000 1.0000
vn 0.0000 0.0000 -1.0000
usemtl 0
s 1
f 33/61/23 34/62/23 35/63/23
f 34/62/23 36/64/23 35/63/23
f 37/65/24 38/66/24 39/67/24
f 38/66/24 40/68/24 39/67/24
f 37/65/25 39/69/25 35/70/25
f 39/69/25 33/71/25 35/70/25
f 40/72/26 38/66/26 34/73/26
f 38/66/26 36/74/26 34/73/26
f 39/75/27 40/76/27 33/61/27
f 40/76/27 34/62/27 33/61/27
f 35/70/28 36/74/28 37/65/28
f 36/74/28 38/66/28 37/65/28
o grinder_16
v -1.060660 2.828427 -0.250000
v -0.707107 2.474874 -0.250000
v -1.060660 2.828427 0.250000
v -0.707107 2.474874 0.250000
v -0.707107 3.181981 -0.250000
v -0.707107 3.181981 0.250000
v -0.353553 2.828427 0.250000
v -0.353553 2.828427 -0.250000
vt 0.062500 0.437500
vt 0.093750 0.437500
vt 0.062500 0.468750
vt 0.093750 0.468750
vt 0.093750 0.437500
vt 0.062500 0.468750
vt 0.093750 0.468750
vt 0.062500 0.437500
vt 0.093750 0.437500
vt 0.062500 0.468750
vt 0.093750 0.468750
vt 0.093750 0.468750
vn -0.7071 -0.7071 0.0000
vn -0.7071 0.7071 0.0000
vn 0.0000 -0.0000 1.0000
vn 0.0000 0.0000 -1.0000
usemtl 0
s 1
f 41/77/29 42/78/29 43/79/29
f 42/78/29 44/80/29 43/79/29
f 41/77/30 43/81/30 45/82/30
f 43/81/30 46/83/30 45/82/30
f 43/84/31 44/85/31 46/86/31
f 44/85/31 47/87/31 46/86/31
f 45/82/32 48/88/32 41/77/32
f 48/88/32 42/78/32 41/77/32
o grinder_17
v 0.707107 1.767767 0.250000
v 1.060660 1.414214 0.250000
v 0.707107 1.767767 -0.250000
v 1.060660 1.414214 -0.250000
v -1.060660 0.000000 -0.250000
v -0.707107 -0.353553 -0.250000
v -1.060660 -0.000000 0.250000
v -0.707107 -0.353553 0.250000
vt 0.187500 0.468750
vt 0.218750 0.468750
vt 0.187500 0.437500
vt 0.218750 0.437500
vt 0.187500 0.312500
vt 0.218750 0.312500
vt 0.187500 0.343750
vt 0.218750 0.343750
vt 0.218750 0.312500
vt 0.187500 0.468750
vt 0.218750 0.468750
vt 0.187500 0.312500
vt 0.187500 0.468750
vt 0.218750 0.468750
vt 0.187500 0.312500
vt 0.218750 0.312500
vn 0.7071 0.7071 0.0000
vn -0.7071 -0.7071 0.0000
vn -0.7071 0.7071 0.0000
vn 0.7071 -0.7071 0.0000
vn 0.0000 -0.0000 1.0000
vn 0.0000 0.0000 -1.0000
usemtl 0
s 1
f 49/89/33 50/90/33 51/91/33
f 50/90/33 52/92/33 51/91/33
f 53/93/34 54/94/34 55/95/34
f 54/94/34 56/96/34 55/95/34
f 53/93/35 55/97/35 51/98/35
f 55/97/35 49/99/35 51/98/35
f 56/100/36 54/94/36 50/101/36
f 54/94/36 52/102/36 50/101/36
f 55/103/37 56/104/37 49/89/37
f 56/104/37 50/90/37 49/89/37
f 51/98/38 52/102/38 53/93/38
f 52/102/38 54/94/38 53/93/38
o grinder_18
v 0.707107 1.060660 0.250000
v 1.060660 0.707107 0.250000
v 0.707107 1.060660 -0.250000
v 1.060660 0.707107 -0.250000
v -1.060660 -0.707107 -0.250000
v -0.707107 -1.060660 -0.250000
v -1.060660 -0.707107 0.250000
v -0.707107 -1.060660 0.250000
vt 0.218750 0.437500
vt 0.250000 0.437500
vt 0.218750 0.406250
vt 0.250000 0.406250
vt 0.218750 0.281250
vt 0.250000 0.281250
vt 0.218750 0.312500
vt 0.250000 0.312500
vt 0.250000 0.281250
vt 0.218750 0.437500
vt 0.250000 0.437500
vt 0.218750 0.281250
vt 0.218750 0.437500
vt 0.250000 0.437500
vt 0.218750 0.281250
vt 0.250000 0.281250
vn 0.7071 0.7071 0.0000
vn -0.7071 -0.7071 0.0000
vn -0.7071 0.7071 0.0000
vn 0.7071 -0.7071 0.0000
vn 0.0000 -0.0000 1.0000
vn 0.0000 0.0000 -1.0000
usemtl 0
s 1
f 57/105/39 58/106/39 59/107/39
f 58/106/39 60/108/39 59/107/39
f 61/109/40 62/110/40 63/111/40
f 62/110/40 64/112/40 63/111/40
f 61/109/41 63/113/41 59/114/41
f 63/113/41 57/115/41 59/114/41
f 64/116/42 62/110/42 58/117/42
f 62/110/42 60/118/42 58/117/42
f 63/119/43 64/120/43 57/105/43
f 64/120/43 58/106/43 57/105/43
f 59/114/44 60/118/44 61/109/44
f 60/118/44 62/110/44 61/109/44
o grinder_19
v 0.707107 0.353553 0.250000
v 1.060660 -0.000000 0.250000
v 0.707107 0.353553 -0.250000
v 1.060660 0.000000 -0.250000
v -1.060660 -1.414214 -0.250000
v -0.707107 -1.767767 -0.250000
v -1.060660 -1.414214 0.250000
v -0.707107 -1.767767 0.250000
vt 0.250000 0.406250
vt 0.281250 0.406250
vt 0.250000 0.375000
vt 0.281250 0.375000
vt 0.250000 0.250000
vt 0.281250 0.250000
vt 0.250000 0.281250
vt 0.281250 0.281250
vt 0.281250 0.250000
vt 0.250000 0.406250
vt 0.281250 0.406250
vt 0.250000 0.250000
vt 0.250000 0.406250
vt 0.281250 0.406250
vt 0.250000 0.250000
vt 0.281250 0.250000
vn 0.7071 0.7071 0.0000
vn -0.7071 -0.7071 0.0000
vn -0.7071 0.7071 0.0000
vn 0.7071 -0.7071 0.0000
vn 0.0000 -0.0000 1.0000
vn 0.0000 0.0000 -1.0000
usemtl 0
s 1
f 65/121/45 66/122/45 67/123/45
f 66/122/45 68/124/45 67/123/45
f 69/125/46 70/126/46 71/127/46
f 70/126/46 72/128/46 71/127/46
f 69/125/47 71/129/47 67/130/47
f 71/129/47 65/131/47 67/130/47
f 72/132/48 70/126/48 66/133/48
f 70/126/48 68/134/48 66/133/48
f 71/135/49 72/136/49 65/121/49
f 72/136/49 66/122/49 65/121/49
f 67/130/50 68/134/50 69/125/50
f 68/134/50 70/126/50 69/125/50
o grinder_20
v 0.707107 -0.353553 0.250000
v 1.060660 -0.707107 0.250000
v 0.707107 -0.353553 -0.250000
v 1.060660 -0.707107 -0.250000
v -1.060660 -2.121320 -0.250000
v -0.707107 -2.474874 -0.250000
v -1.060660 -2.121320 0.250000
v -0.707107 -2.474874 0.250000
vt 0.281250 0.375000
vt 0.312500 0.375000
vt 0.281250 0.343750
vt 0.312500 0.343750
vt 0.281250 0.218750
vt 0.312500 0.218750
vt 0.281250 0.250000
vt 0.312500 0.250000
vt 0.312500 0.218750
vt 0.281250 0.375000
vt 0.312500 0.375000
vt 0.281250 0.218750
vt 0.281250 0.375000
vt 0.312500 0.375000
vt 0.281250 0.218750
vt 0.312500 0.218750
vn 0.7071 0.7071 0.0000
vn -0.7071 -0.7071 0.0000
vn -0.7071 0.7071 0.0000
vn 0.7071 -0.7071 0.0000
vn -0.0000 -0.0000 1.0000
vn 0.0000 0.0000 -1.0000
usemtl 0
s 1
f 73/137/51 74/138/51 75/139/51
f 74/138/51 76/140/51 75/139/51
f 77/141/52 78/142/52 79/143/52
f 78/142/52 80/144/52 79/143/52
f 77/141/53 79/145/53 75/146/53
f 79/145/53 73/147/53 75/146/53
f 80/148/54 78/142/54 74/149/54
f 78/142/54 76/150/54 74/149/54
f 79/151/55 80/152/55 73/137/55
f 80/152/55 74/138/55 73/137/55
f 75/146/56 76/150/56 77/141/56
f 76/150/56 78/142/56 77/141/56
o grinder_21
v 0.707107 -1.060660 0.250000
v 1.060660 -1.414214 0.250000
v 0.707107 -1.060660 -0.250000
v 1.060660 -1.414214 -0.250000
v -1.060660 -2.828427 -0.250000
v -0.707107 -3.181981 -0.250000
v -1.060660 -2.828427 0.250000
v -0.707107 -3.181981 0.250000
vt 0.312500 0.343750
vt 0.343750 0.343750
vt 0.312500 0.312500
vt 0.343750 0.312500
vt 0.312500 0.187500
vt 0.343750 0.187500
vt 0.312500 0.218750
vt 0.343750 0.218750
vt 0.343750 0.187500
vt 0.312500 0.343750
vt 0.343750 0.343750
vt 0.312500 0.187500
vt 0.312500 0.343750
vt 0.343750 0.343750
vt 0.312500 0.187500
vt 0.343750 0.187500
vn 0.7071 0.7071 0.0000
vn -0.7071 -0.7071 0.0000
vn -0.7071 0.7071 0.0000
vn 0.7071 -0.7071 0.0000
vn 0.0000 -0.0000 1.0000
vn 0.0000 0.0000 -1.0000
usemtl 0
s 1
f 81/153/57 82/154/57 83/155/57
f 82/154/57 84/156/57 83/155/57
f 85/157/58 86/158/58 87/159/58
f 86/158/58 88/160/58 87/159/58
f 85/157/59 87/161/59 83/162/59
f 87/161/59 81/163/59 83/162/59
f 88/164/60 86/158/60 82/165/60
f 86/158/60 84/166/60 82/165/60
f 87/167/61 88/168/61 81/153/61
f 88/168/61 82/154/61 81/153/61
f 83/162/62 84/166/62 85/157/62
f 84/166/62 86/158/62 85/157/62
o grinder_22
v 0.707107 -1.767767 0.250000
v 1.060660 -2.121320 0.250000
v 0.707107 -1.767767 -0.250000
v 1.060660 -2.121320 -0.250000
v -1.767767 -4.242640 -0.250000
v -1.414214 -4.596194 -0.250000
v -1.767767 -4.242640 0.250000
v -1.414214 -4.596194 0.250000
vt 0.343750 0.312500
vt 0.375000 0.312500
vt 0.343750 0.281250
vt 0.375000 0.281250
vt 0.343750 0.093750
vt 0.375000 0.093750
vt 0.343750 0.125000
vt 0.375000 0.125000
vt 0.375000 0.093750
vt 0.343750 0.312500
vt 0.375000 0.312500
vt 0.343750 0.093750
vt 0.343750 0.312500
vt 0.375000 0.312500
vt 0.343750 0.093750
vt 0.375000 0.093750
vn 0.7071 0.7071 0.0000
vn -0.7071 -0.7071 0.0000
vn -0.7071 0.7071 0.0000
vn 0.7071 -0.7071 0.0000
vn 0.0000 -0.0000 1.0000
vn 0.0000 0.0000 -1.0000
usemtl 0
s 1
f 89/169/63 90/170/63 91/171/63
f 90/170/63 92/172/63 91/171/63
f 93/173/64 94/174/64 95/175/64
f 94/174/64 96/176/64 95/175/64
f 93/173/65 95/177/65 91/178/65
f 95/177/65 89/179/65 91/178/65
f 96/180/66 94/174/66 90/181/66
f 94/174/66 92/182/66 90/181/66
f 95/183/67 96/184/67 89/169/67
f 96/184/67 90/170/67 89/169/67
f 91/178/68 92/182/68 93/173/68
f 92/182/68 94/174/68 93/173/68
o grinder_23
v 0.707107 -2.474874 0.250000
v 1.060660 -2.828427 0.250000
v 0.707107 -2.474874 -0.250000
v 1.060660 -2.828427 -0.250000
v -1.060660 -4.242640 -0.250000
v -0.707107 -4.596194 -0.250000
v -1.060660 -4.242640 0.250000
v -0.707107 -4.596194 0.250000
vt 0.375000 0.281250
vt 0.406250 0.281250
vt 0.375000 0.250000
vt 0.406250 0.250000
vt 0.375000 0.125000
vt 0.406250 0.125000
vt 0.375000 0.156250
vt 0.406250 0.156250
vt 0.375000 0.125000
vt 0.375000 0.281250
vt 0.406250 0.281250
vt 0.375000 0.125000
vt 0.406250 0.125000
vt 0.375000 0.281250
vn 0.7071 0.7071 0.0000
vn -0.7071 -0.7071 0.0000
vn 0.7071 -0.7071 0.0000
vn 0.0000 -0.0000 1.0000
vn 0.0000 0.0000 -1.0000
usemtl 0
s 1
f 97/185/69 98/186/69 99/187/69
f 98/186/69 100/188/69 99/187/69
f 101/189/70 102/190/70 103/191/70
f 102/190/70 104/192/70 103/191/70
f 104/193/71 102/190/71 98/194/71
f 102/190/71 100/195/71 98/194/71
f 103/196/72 104/197/72 97/185/72
f 104/197/72 98/186/72 97/185/72
f 99/198/73 100/195/73 101/189/73
f 100/195/73 102/190/73 101/189/73
o grinder_24
v 1.414214 -3.181981 0.250000
v 2.121320 -3.889087 0.250000
v 1.414214 -3.181981 -0.250000
v 2.121320 -3.889087 -0.250000
v 0.707107 -3.889087 -0.250000
v 1.414214 -4.596194 -0.250000
v 0.707107 -3.889087 0.250000
v 1.414214 -4.596194 0.250000
vt 0.437500 0.281250
vt 0.500000 0.281250
vt 0.437500 0.250000
vt 0.500000 0.250000
vt 0.437500 0.218750
vt 0.500000 0.218750
vt 0.437500 0.250000
vt 0.500000 0.250000
vt 0.468750 0.218750
vt 0.437500 0.281250
vt 0.468750 0.281250
vt 0.468750 0.218750
vt 0.468750 0.281250
vt 0.500000 0.281250
vt 0.437500 0.218750
vt 0.500000 0.218750
vn 0.7071 0.7071 0.0000
vn -0.7071 -0.7071 0.0000
vn -0.7071 0.7071 0.0000
vn 0.7071 -0.7071 0.0000
vn 0.0000 -0.0000 1.0000
vn 0.0000 0.0000 -1.0000
usemtl 0
s 1
f 105/199/74 106/200/74 107/201/74
f 106/200/74 108/202/74 107/201/74
f 109/203/75 110/204/75 111/205/75
f 110/204/75 112/206/75 111/205/75
f 109/203/76 111/207/76 107/208/76
f 111/207/76 105/209/76 107/208/76
f 112/210/77 110/204/77 106/211/77
f 110/204/77 108/212/77 106/211/77
f 111/213/78 112/214/78 105/199/78
f 112/214/78 106/200/78 105/199/78
f 107/208/79 108/212/79 109/203/79
f 108/212/79 110/204/79 109/203/79
o grinder_25
v 0.707107 -3.181981 0.250000
v 1.060660 -3.535534 0.250000
v 0.707107 -3.181981 -0.250000
v 1.060660 -3.535534 -0.250000
v -0.707107 -4.596194 -0.250000
v -0.353553 -4.949748 -0.250000
v -0.707107 -4.596194 0.250000
v -0.353553 -4.949748 0.250000
vt 0.406250 0.250000
vt 0.437500 0.250000
vt 0.406250 0.218750
vt 0.437500 0.218750
vt 0.406250 0.125000
vt 0.437500 0.125000
vt 0.406250 0.156250
vt 0.437500 0.156250
vt 0.406250 0.125000
vt 0.437500 0.125000
vt 0.406250 0.250000
vt 0.437500 0.250000
vn 0.7071 0.7071 0.0000
vn -0.7071 -0.7071 0.0000
vn 0.0000 -0.0000 1.0000
vn 0.0000 0.0000 -1.0000
usemtl 0
s 1
f 113/215/80 114/216/80 115/217/80
f 114/216/80 116/218/80 115/217/80
f 117/219/81 118/220/81 119/221/81
f 118/220/81 120/222/81 119/221/81
f 119/223/82 120/224/82 113/215/82
f 120/224/82 114/216/82 113/215/82
f 115/225/83 116/226/83 117/219/83
f 116/226/83 118/220/83 117/219/83
o grinder_27
v -0.707107 -5.303301 -0.250000
v -0.353553 -5.656854 -0.250000
v -0.707107 -5.303301 0.250000
v -0.353553 -5.656854 0.250000
v 0.707107 -3.889087 -0.250000
v 0.707107 -3.889087 0.250000
v 1.060660 -4.242640 0.250000
v 1.060660 -4.242640 -0.250000
vt 0.437500 0.093750
vt 0.468750 0.093750
vt 0.437500 0.125000
vt 0.468750 0.125000
vt 0.468750 0.093750
vt 0.437500 0.218750
vt 0.468750 0.218750
vt 0.437500 0.093750
vt 0.437500 0.218750
vt 0.468750 0.218750
vt 0.437500 0.093750
vt 0.468750 0.093750
vt 0.437500 0.218750
vt 0.468750 0.218750
vn -0.7071 -0.7071 0.0000
vn -0.7071 0.7071 0.0000
vn 0.7071 -0.7071 0.0000
vn -0.0000 -0.0000 1.0000
vn 0.0000 0.0000 -1.0000
usemtl 0
s 1
f 121/227/84 122/228/84 123/229/84
f 122/228/84 124/230/84 123/229/84
f 121/227/85 123/231/85 125/232/85
f 123/231/85 126/233/85 125/232/85
f 124/234/86 122/228/86 127/235/86
f 122/228/86 128/236/86 127/235/86
f 123/237/87 124/238/87 126/239/87
f 124/238/87 127/240/87 126/239/87
f 125/232/88 128/236/88 121/227/88
f 128/236/88 122/228/88 121/227/88
o grinder_28
v -1.414214 -3.181981 0.250000
v -1.060660 -3.535534 0.250000
v -1.414214 -3.181981 -0.250000
v -1.060660 -3.535534 -0.250000
v -2.121320 -3.889087 -0.250000
v -1.767767 -4.242640 -0.250000
v -2.121320 -3.889087 0.250000
v -1.767767 -4.242640 0.250000
vt 0.312500 0.156250
vt 0.343750 0.156250
vt 0.312500 0.125000
vt 0.343750 0.125000
vt 0.312500 0.093750
vt 0.343750 0.093750
vt 0.312500 0.125000
vt 0.343750 0.125000
vt 0.343750 0.093750
vt 0.312500 0.156250
vt 0.343750 0.156250
vt 0.312500 0.093750
vt 0.343750 0.093750
vt 0.343750 0.156250
vn 0.7071 0.7071 0.0000
vn -0.7071 -0.7071 0.0000
vn -0.7071 0.7071 0.0000
vn -0.0000 -0.0000 1.0000
vn 0.0000 0.0000 -1.0000
usemtl 0
s 1
f 129/241/89 130/242/89 131/243/89
f 130/242/89 132/244/89 131/243/89
f 133/245/90 134/246/90 135/247/90
f 134/246/90 136/248/90 135/247/90
f 133/245/91 135/249/91 131/250/91
f 135/249/91 129/251/91 131/250/91
f 135/252/92 136/253/92 129/241/92
f 136/253/92 130/242/92 129/241/92
f 131/250/93 132/254/93 133/245/93
f 132/254/93 134/246/93 133/245/93
o grinder_29
v 0.353553 -4.949748 0.250000
v 0.707107 -5.303301 0.250000
v 0.353553 -4.949748 -0.250000
v 0.707107 -5.303301 -0.250000
v -0.707107 -6.010407 -0.250000
v -0.353553 -6.363961 -0.250000
v -0.707107 -6.010407 0.250000
v -0.353553 -6.363961 0.250000
vt 0.468750 0.156250
vt 0.500000 0.156250
vt 0.468750 0.125000
vt 0.500000 0.125000
vt 0.468750 0.062500
vt 0.500000 0.062500
vt 0.468750 0.093750
vt 0.500000 0.093750
vt 0.500000 0.062500
vt 0.468750 0.156250
vt 0.500000 0.156250
vt 0.468750 0.062500
vt 0.468750 0.156250
vt 0.500000 0.156250
vt 0.468750 0.062500
vt 0.500000 0.062500
vn 0.7071 0.7071 0.0000
vn -0.7071 -0.7071 0.0000
vn -0.7071 0.7071 0.0000
vn 0.7071 -0.7071 0.0000
vn 0.0000 -0.0000 1.0000
vn -0.0000 0.0000 -1.0000
usemtl 0
s 1
f 137/255/94 138/256/94 139/257/94
f 138/256/94 140/258/94 139/257/94
f 141/259/95 142/260/95 143/261/95
f 142/260/95 144/262/95 143/261/95
f 141/259/96 143/263/96 139/264/96
f 143/263/96 137/265/96 139/264/96
f 144/266/97 142/260/97 138/267/97
f 142/260/97 140/268/97 138/267/97
f 143/269/98 144/270/98 137/255/98
f 144/270/98 138/256/98 137/255/98
f 139/264/99 140/268/99 141/259/99
f 140/268/99 142/260/99 141/259/99
o grinder_30
v 0.353553 -5.656854 0.250000
v 0.707107 -6.010407 0.250000
v 0.353553 -5.656854 -0.250000
v 0.707107 -6.010407 -0.250000
v -1.060660 -7.071068 -0.250000
v -0.707107 -7.424621 -0.250000
v -1.060660 -7.071068 0.250000
v -0.707107 -7.424621 0.250000
vt 0.500000 0.125000
vt 0.531250 0.125000
vt 0.500000 0.093750
vt 0.531250 0.093750
vt 0.500000 0.000000
vt 0.531250 0.000000
vt 0.500000 0.031250
vt 0.531250 0.031250
vt 0.531250 0.000000
vt 0.500000 0.125000
vt 0.531250 0.125000
vt 0.500000 0.000000
vt 0.500000 0.125000
vt 0.531250 0.125000
vt 0.500000 0.000000
vt 0.531250 0.000000
vn 0.7071 0.7071 0.0000
vn -0.7071 -0.7071 0.0000
vn -0.7071 0.7071 0.0000
vn 0.7071 -0.7071 0.0000
vn 0.0000 -0.0000 1.0000
vn -0.0000 0.0000 -1.0000
usemtl 0
s 1
f 145/271/100 146/272/100 147/273/100
f 146/272/100 148/274/100 147/273/100
f 149/275/101 150/276/101 151/277/101
f 150/276/101 152/278/101 151/277/101
f 149/275/102 151/279/102 147/280/102
f 151/279/102 145/281/102 147/280/102
f 152/282/103 150/276/103 146/283/103
f 150/276/103 148/284/103 146/283/103
f 151/285/104 152/286/104 145/271/104
f 152/286/104 146/272/104 145/271/104
f 147/280/105 148/284/105 149/275/105
f 148/284/105 150/276/105 149/275/105
o grinder_31
v 0.353553 -6.363961 0.250000
v 1.060660 -7.071068 0.250000
v 0.353553 -6.363961 -0.250000
v 1.060660 -7.071068 -0.250000
v -0.707107 -7.424621 -0.250000
v 0.000000 -8.131728 -0.250000
v -0.707107 -7.424621 0.250000
v 0.000000 -8.131728 0.250000
vt 0.531250 0.093750
vt 0.593750 0.093750
vt 0.531250 0.062500
vt 0.593750 0.062500
vt 0.531250 0.000000
vt 0.593750 0.000000
vt 0.531250 0.031250
vt 0.593750 0.031250
vt 0.562500 0.000000
vt 0.562500 0.093750
vt 0.593750 0.093750
vt 0.531250 0.000000
vt 0.593750 0.000000
vt 0.531250 0.093750
vn 0.7071 0.7071 0.0000
vn -0.7071 -0.7071 0.0000
vn 0.7071 -0.7071 0.0000
vn 0.0000 -0.0000 1.0000
vn 0.0000 0.0000 -1.0000
usemtl 0
s 1
f 153/287/106 154/288/106 155/289/106
f 154/288/106 156/290/106 155/289/106
f 157/291/107 158/292/107 159/293/107
f 158/292/107 160/294/107 159/293/107
f 160/295/108 158/292/108 154/296/108
f 158/292/108 156/297/108 154/296/108
f 159/298/109 160/299/109 153/287/109
f 160/299/109 154/288/109 153/287/109
f 155/300/110 156/297/110 157/291/110
f 156/297/110 158/292/110 157/291/110
